<mxfile host="app.diagrams.net" modified="2024-03-17T20:14:28.183Z" agent="Mozilla/5.0 (Windows NT 10.0; Win64; x64) AppleWebKit/537.36 (KHTML, like Gecko) Chrome/122.0.0.0 Safari/537.36 Edg/122.0.0.0" etag="oNJymKol-AVfihEuLafr" version="24.0.7" type="device">
  <diagram name="Page-1" id="mK4yRwNsklvm9rjLqn-P">
    <mxGraphModel dx="3198" dy="828" grid="1" gridSize="10" guides="1" tooltips="1" connect="1" arrows="1" fold="1" page="1" pageScale="1" pageWidth="850" pageHeight="1100" math="0" shadow="0">
      <root>
        <mxCell id="0" />
        <mxCell id="1" parent="0" />
        <UserObject label="" plantUmlData="{&#xa;  &quot;data&quot;: &quot;@startuml\n!include &lt;tupadr3/common&gt;\n!include &lt;tupadr3/font-awesome/server&gt;\n!include &lt;tupadr3/font-awesome/database&gt;\n!include &lt;tupadr3/font-awesome/desktop&gt;\n!include &lt;tupadr3/font-awesome/cloud&gt;\n\nskinparam {\n    backgroundColor #EEF2F3\n    component {\n        BackgroundColor #FEFEFE\n        BorderColor #2C3E50\n    }\n    node {\n        BackgroundColor #AED6F1\n        BorderColor #2C3E50\n    }\n    package {\n        BackgroundColor #ABEBC6\n        BorderColor #2C3E50\n    }\n}\n\nnode \&quot;Data Center\&quot; {\n    package \&quot;Server Cluster\&quot; {\n        component \&quot;Web Server\&quot; as WS &lt;&lt;fa-server&gt;&gt;\n        component \&quot;Application Server\&quot; as AS &lt;&lt;fa-server&gt;&gt;\n        database \&quot;Database Server\&quot; as DB &lt;&lt;database&gt;&gt;\n    }\n    node \&quot;Internal Network\&quot; {\n        [Admin Workstation] &lt;&lt;desktop&gt;&gt;\n        [Developer Workstation] &lt;&lt;desktop&gt;&gt;\n    }\n}\n\ncloud \&quot;Internet\&quot; {\n    [Cloud Service 1] &lt;&lt;fa-cloud&gt;&gt;\n    [Cloud Service 2] &lt;&lt;fa-cloud&gt;&gt;\n}\n\nnode \&quot;Corporate Office\&quot; {\n    [Office Desktop 1] &lt;&lt;desktop&gt;&gt;\n    [Office Desktop 2] &lt;&lt;desktop&gt;&gt;\n    [Office Laptop] &lt;&lt;desktop&gt;&gt;\n}\n\nnode \&quot;Remote Location\&quot; {\n    [Remote Desktop] &lt;&lt;desktop&gt;&gt;\n    [Remote Laptop] &lt;&lt;desktop&gt;&gt;\n}\n\nCloud_Service_1 -[hidden]- Cloud_Service_2\nWS -up-&gt; Cloud_Service_1\nAS -up-&gt; Cloud_Service_2\n\nWS -right-&gt; DB\nAS -left-&gt; DB\n\nAdmin_Workstation -down-&gt; WS\nDeveloper_Workstation -down-&gt; AS\n\nOffice_Desktop_1 .right.&gt; WS : \&quot;VPN\&quot;\nOffice_Desktop_2 .right.&gt; AS : \&quot;VPN\&quot;\nOffice_Laptop .up.&gt; DB : \&quot;VPN\&quot;\n\nRemote_Desktop -right-&gt; WS : \&quot;Remote Access\&quot;\nRemote_Laptop -right-&gt; AS : \&quot;Remote Access\&quot;\n\n@enduml\n&quot;,&#xa;  &quot;format&quot;: &quot;svg&quot;&#xa;}" id="8LzM_8HPgckV4DCLB8SA-2">
          <mxCell style="shape=image;noLabel=1;verticalAlign=top;aspect=fixed;imageAspect=0;image=data:image/svg+xml,PD94bWwgdmVyc2lvbj0iMS4wIiBlbmNvZGluZz0idXMtYXNjaWkiIHN0YW5kYWxvbmU9Im5vIj8+PHN2ZyB4bWxucz0iaHR0cDovL3d3dy53My5vcmcvMjAwMC9zdmciIHhtbG5zOnhsaW5rPSJodHRwOi8vd3d3LnczLm9yZy8xOTk5L3hsaW5rIiBjb250ZW50U3R5bGVUeXBlPSJ0ZXh0L2NzcyIgaGVpZ2h0PSI2MDlweCIgcHJlc2VydmVBc3BlY3RSYXRpbz0ibm9uZSIgc3R5bGU9IndpZHRoOjIxNTFweDtoZWlnaHQ6NjA5cHg7YmFja2dyb3VuZDojRUVGMkYzOyIgdmVyc2lvbj0iMS4xIiB2aWV3Qm94PSIwIDAgMjE1MSA2MDkiIHdpZHRoPSIyMTUxcHgiIHpvb21BbmRQYW49Im1hZ25pZnkiPjxkZWZzLz48Zz48cmVjdCBmaWxsPSIjRUVGMkYzIiBoZWlnaHQ9IjYwOSIgc3R5bGU9InN0cm9rZTpub25lO3N0cm9rZS13aWR0aDoxLjA7IiB3aWR0aD0iMjE1MSIgeD0iMCIgeT0iMCIvPjwhLS1jbHVzdGVyIERhdGEgQ2VudGVyLS0+PGcgaWQ9ImNsdXN0ZXJfRGF0YSBDZW50ZXIiPjxwb2x5Z29uIGZpbGw9IiNBQkVCQzYiIHBvaW50cz0iMTYsMzAxLjUsMjYsMjkxLjUsMTAwNiwyOTEuNSwxMDA2LDQ3Mi41LDk5Niw0ODIuNSwxNiw0ODIuNSwxNiwzMDEuNSIgc3R5bGU9InN0cm9rZTojMkMzRTUwO3N0cm9rZS13aWR0aDoxLjA7Ii8+PGxpbmUgc3R5bGU9InN0cm9rZTojMkMzRTUwO3N0cm9rZS13aWR0aDoxLjA7IiB4MT0iOTk2IiB4Mj0iMTAwNiIgeTE9IjMwMS41IiB5Mj0iMjkxLjUiLz48bGluZSBzdHlsZT0ic3Ryb2tlOiMyQzNFNTA7c3Ryb2tlLXdpZHRoOjEuMDsiIHgxPSIxNiIgeDI9Ijk5NiIgeTE9IjMwMS41IiB5Mj0iMzAxLjUiLz48bGluZSBzdHlsZT0ic3Ryb2tlOiMyQzNFNTA7c3Ryb2tlLXdpZHRoOjEuMDsiIHgxPSI5OTYiIHgyPSI5OTYiIHkxPSIzMDEuNSIgeTI9IjQ4Mi41Ii8+PHRleHQgZmlsbD0iIzAwMDAwMCIgZm9udC1mYW1pbHk9InNhbnMtc2VyaWYiIGZvbnQtc2l6ZT0iMTQiIGZvbnQtd2VpZ2h0PSJib2xkIiBsZW5ndGhBZGp1c3Q9InNwYWNpbmciIHRleHRMZW5ndGg9Ijc3IiB4PSI0NjguNSIgeT0iMzE3LjczNDQiPkRhdGEgQ2VudGVyPC90ZXh0PjwvZz48IS0tY2x1c3RlciBTZXJ2ZXIgQ2x1c3Rlci0tPjxnIGlkPSJjbHVzdGVyX1NlcnZlciBDbHVzdGVyIj48cGF0aCBkPSJNNDgwLjUsMzQ3LjUgTDU3OS41LDM0Ny41IEEzLjc1LDMuNzUgMCAwIDEgNTgyLDM1MCBMNTg5LDM2OC40ODQ0IEw5NzkuNSwzNjguNDg0NCBBMi41LDIuNSAwIDAgMSA5ODIsMzcwLjk4NDQgTDk4Miw0NTYgQTIuNSwyLjUgMCAwIDEgOTc5LjUsNDU4LjUgTDQ4MC41LDQ1OC41IEEyLjUsMi41IDAgMCAxIDQ3OCw0NTYgTDQ3OCwzNTAgQTIuNSwyLjUgMCAwIDEgNDgwLjUsMzQ3LjUgIiBmaWxsPSIjQUJFQkM2IiBzdHlsZT0ic3Ryb2tlOiMyQzNFNTA7c3Ryb2tlLXdpZHRoOjEuNTsiLz48bGluZSBzdHlsZT0ic3Ryb2tlOiMyQzNFNTA7c3Ryb2tlLXdpZHRoOjEuNTsiIHgxPSI0NzgiIHgyPSI1ODkiIHkxPSIzNjguNDg0NCIgeTI9IjM2OC40ODQ0Ii8+PHRleHQgZmlsbD0iIzAwMDAwMCIgZm9udC1mYW1pbHk9InNhbnMtc2VyaWYiIGZvbnQtc2l6ZT0iMTQiIGZvbnQtd2VpZ2h0PSJib2xkIiBsZW5ndGhBZGp1c3Q9InNwYWNpbmciIHRleHRMZW5ndGg9Ijk4IiB4PSI0ODIiIHk9IjM2Mi43MzQ0Ij5TZXJ2ZXIgQ2x1c3RlcjwvdGV4dD48L2c+PCEtLWNsdXN0ZXIgSW50ZXJuYWwgTmV0d29yay0tPjxnIGlkPSJjbHVzdGVyX0ludGVybmFsIE5ldHdvcmsiPjxwb2x5Z29uIGZpbGw9IiNBQkVCQzYiIHBvaW50cz0iNDAsMzQ3LjUsNTAsMzM3LjUsNDU0LDMzNy41LDQ1NCw0NDguNSw0NDQsNDU4LjUsNDAsNDU4LjUsNDAsMzQ3LjUiIHN0eWxlPSJzdHJva2U6IzJDM0U1MDtzdHJva2Utd2lkdGg6MS4wOyIvPjxsaW5lIHN0eWxlPSJzdHJva2U6IzJDM0U1MDtzdHJva2Utd2lkdGg6MS4wOyIgeDE9IjQ0NCIgeDI9IjQ1NCIgeTE9IjM0Ny41IiB5Mj0iMzM3LjUiLz48bGluZSBzdHlsZT0ic3Ryb2tlOiMyQzNFNTA7c3Ryb2tlLXdpZHRoOjEuMDsiIHgxPSI0MCIgeDI9IjQ0NCIgeTE9IjM0Ny41IiB5Mj0iMzQ3LjUiLz48bGluZSBzdHlsZT0ic3Ryb2tlOiMyQzNFNTA7c3Ryb2tlLXdpZHRoOjEuMDsiIHgxPSI0NDQiIHgyPSI0NDQiIHkxPSIzNDcuNSIgeTI9IjQ1OC41Ii8+PHRleHQgZmlsbD0iIzAwMDAwMCIgZm9udC1mYW1pbHk9InNhbnMtc2VyaWYiIGZvbnQtc2l6ZT0iMTQiIGZvbnQtd2VpZ2h0PSJib2xkIiBsZW5ndGhBZGp1c3Q9InNwYWNpbmciIHRleHRMZW5ndGg9IjExMyIgeD0iMTg2LjUiIHk9IjM2My43MzQ0Ij5JbnRlcm5hbCBOZXR3b3JrPC90ZXh0PjwvZz48IS0tY2x1c3RlciBJbnRlcm5ldC0tPjxnIGlkPSJjbHVzdGVyX0ludGVybmV0Ij48cGF0aCBkPSJNMTQzMC4zNTI5LDI0LjYwMjkgQzE0MzkuMjUwOSwxNS4yMTI1IDE0NDkuNjU0NCwxNC4xNTUxIDE0NTUuNTI5MSwyNy44OTM3IEMxNDYwLjc2ODEsMTYuMzA4NCAxNDcxLjEzNTQsMTYuMDc2OCAxNDc4LjA4MzksMjYuMTEwMyBDMTQ4NS4xNzk0LDE0LjkwMDcgMTQ5NC45NTc0LDEyLjU0MTcgMTUwMi43MjE4LDI1LjQyNjMgQzE1MDkuMTI1MSwxNS40MjE0IDE1MTkuMTkzMywxNC4xNDg2IDE1MjYuMTI4MywyNC44MjQ2IEMxNTMyLjM4ODMsMTQuNTMwOCAxNTQwLjkzNTksMTMuNjI4NiAxNTQ4LjU4MDksMjMuMjY0MiBDMTU1NS4wMDgzLDEyLjA2NzcgMTU2NC4wOTk3LDExLjUzOTUgMTU3MC43MjUzLDIzLjA3MTEgQzE1NzguOTAzNSwxMC4yMjI3IDE1ODcuMjkwMywxMi4zNzg0IDE1OTYuMTM0LDIyLjMyOTQgQzE2MDQuOTcyNSwxMC40NjEzIDE2MTMuMTk5NiwxNC41ODQxIDE2MTkuNDEwMywyNS4wNjYxIEMxNjI0LjY4NDIsMTIuNTk4NSAxNjM1LjAyNzMsMTEuODcyNyAxNjQxLjgwMjgsMjMuNjgxIEMxNjQ5LjQxNzIsMTEuOTE0OCAxNjYxLjMzODcsMTUuMTk1OSAxNjY2LjM3NjcsMjYuNDMzMiBDMTY3Mi4yNzkyLDE2LjA3MzMgMTY4MS45MzYyLDE0LjcwNyAxNjg5LjAxMDEsMjUuMTU5NCBDMTY5NC45NDI4LDEzLjk4NzMgMTcwMy41NTIyLDEzLjY3NDcgMTcxMC4xMjYsMjQuNTQ1MyBDMTcxOC41OTUsMTAuNjA2NSAxNzI3LjI3NjMsMTEuNzYxNSAxNzM2LjU5MjYsMjMuNjc4MSBDMTc0Ny4zNjIyLDEyLjEyNzcgMTc1OS41MzQ0LDE2LjIwNzUgMTc2MywzMSBDMTc2NS42MzcxLDI5LjQxMyAxNzY3LjAxNzQsMzAuODQ1NSAxNzY3LjI2MDUsMzMuNDM5NSBDMTc4NS45MjY0LDQzLjQ0MDkgMTc5Mi4xNjYsNTkuNTQ3IDE3NzMuMTE5LDc0Ljg3OTggQzE3OTAuMTc0MSw5Ny42NTQ4IDE3ODAuMTg3NywxMTIuMjI3NSAxNzU2LDExOSBDMTc1OC4wNDA5LDExOS41MjQ1IDE3NTguNjM4NiwxMjAuODc0OCAxNzU3LjE0MiwxMjIuNTQwNCBDMTc1MC4yMjU3LDEzMy4wNDg0IDE3NDMuNTUsMTMzLjQ0MTEgMTczNS43NjM0LDEyMy40NDc5IEMxNzI4LjUzNzksMTM2LjkwMjUgMTcxNi4yMjI3LDEzNi4wNjIgMTcwOS4xNTg1LDEyMy4yODQzIEMxNzAzLjc5MzQsMTM0LjI1MyAxNjk1LjYzMzMsMTM1LjQ0MzIgMTY4Ny4zNjc0LDEyNi40NTExIEMxNjgwLjI5LDEzNi43MDk4IDE2NzMuODk4MywxMzUuNjEwMyAxNjY2LjM2MjUsMTI2Ljk2MDQgQzE2NjAuODEyOSwxMzcuNzE2NiAxNjQ5LjU3NiwxMzkuMDYzOSAxNjQyLjIxMzgsMTI5LjA2OTcgQzE2MzcuMTA4LDEzOS44Mzc5IDE2MjguMDQxOSwxNDMuMjgwMSAxNjE5LjgyOTEsMTMyLjI2MTkgQzE2MTEuNTUyNSwxNDYuNTE4MiAxNjAzLjQ5MzQsMTQ2LjgzNzcgMTU5My42MTk3LDEzMy43OTUzIEMxNTg3LjMyNzMsMTQ0LjIwNDMgMTU3Ny41Mjk0LDE0My4wNDE5IDE1NzEuMTI1OCwxMzMuOTIzNSBDMTU2Mi42MDcsMTQ0Ljk5NDUgMTU1My4yMDQ0LDE0NS4xNTUzIDE1NDYuMjc2MSwxMzIuMjczNCBDMTUzOC44ODIxLDE0My45NTYxIDE1MjcuMjYxLDE0Mi42ODU1IDE1MjIuNjkxNSwxMjkuNTg1NCBDMTUxMy43MzEzLDEzNy40MDk5IDE1MDcuNjE3LDEzNS43OTMxIDE1MDIuNjM2OSwxMjUuMjQxNyBDMTQ5Mi43OTk3LDEzNy4zODgxIDE0ODMuNTExOCwxMzguMTAwMyAxNDc1LjU5MjMsMTIzLjMxNTkgQzE0NjguODAzLDEzNS42NjE0IDE0NTguNTc5OSwxMzQuNjMxNSAxNDUyLjcwNTQsMTIyLjQ2MTggQzE0MzguOTY0OCwxMzMuMTY0NSAxNDI0LjU5NiwxMzIuMDQxMSAxNDIxLDExMiBDMTQyMi4wMjAzLDExMi41NDM2IDE0MjIuMTM5NSwxMTMuMzc3OSAxNDIxLjE3NDUsMTE0LjA4NzUgQzEzOTguNTk1NiwxMTAuMTg5OSAxMzkyLjYzNDksOTEuNDI5MyAxNDA5LjAzNjgsNzUuMzI1NSBDMTM4OS4yMjM5LDUyLjgwMDYgMTM5NS45NTA0LDI3LjM2MzQgMTQyOCwyNCBDMTQyOS4wMDY2LDIzLjI0MTQgMTQyOS44NiwyMy4zNTY4IDE0MzAuMzUyOSwyNC42MDI5ICIgZmlsbD0iI0FCRUJDNiIgc3R5bGU9InN0cm9rZTojMkMzRTUwO3N0cm9rZS13aWR0aDoxLjA7Ii8+PHRleHQgZmlsbD0iIzAwMDAwMCIgZm9udC1mYW1pbHk9InNhbnMtc2VyaWYiIGZvbnQtc2l6ZT0iMTQiIGZvbnQtd2VpZ2h0PSJib2xkIiBsZW5ndGhBZGp1c3Q9InNwYWNpbmciIHRleHRMZW5ndGg9IjU2IiB4PSIxNTY0IiB5PSI0Mi4yMzQ0Ij5JbnRlcm5ldDwvdGV4dD48L2c+PCEtLWNsdXN0ZXIgQ29ycG9yYXRlIE9mZmljZS0tPjxnIGlkPSJjbHVzdGVyX0NvcnBvcmF0ZSBPZmZpY2UiPjxwb2x5Z29uIGZpbGw9IiNBQkVCQzYiIHBvaW50cz0iMTAxOCwxNiwxMDI4LDYsMTM4OSw2LDEzODksMjMyLDEzNzksMjQyLDEwMTgsMjQyLDEwMTgsMTYiIHN0eWxlPSJzdHJva2U6IzJDM0U1MDtzdHJva2Utd2lkdGg6MS4wOyIvPjxsaW5lIHN0eWxlPSJzdHJva2U6IzJDM0U1MDtzdHJva2Utd2lkdGg6MS4wOyIgeDE9IjEzNzkiIHgyPSIxMzg5IiB5MT0iMTYiIHkyPSI2Ii8+PGxpbmUgc3R5bGU9InN0cm9rZTojMkMzRTUwO3N0cm9rZS13aWR0aDoxLjA7IiB4MT0iMTAxOCIgeDI9IjEzNzkiIHkxPSIxNiIgeTI9IjE2Ii8+PGxpbmUgc3R5bGU9InN0cm9rZTojMkMzRTUwO3N0cm9rZS13aWR0aDoxLjA7IiB4MT0iMTM3OSIgeDI9IjEzNzkiIHkxPSIxNiIgeTI9IjI0MiIvPjx0ZXh0IGZpbGw9IiMwMDAwMDAiIGZvbnQtZmFtaWx5PSJzYW5zLXNlcmlmIiBmb250LXNpemU9IjE0IiBmb250LXdlaWdodD0iYm9sZCIgbGVuZ3RoQWRqdXN0PSJzcGFjaW5nIiB0ZXh0TGVuZ3RoPSIxMTIiIHg9IjExNDMuNSIgeT0iMzIuMjM0NCI+Q29ycG9yYXRlIE9mZmljZTwvdGV4dD48L2c+PCEtLWNsdXN0ZXIgUmVtb3RlIExvY2F0aW9uLS0+PGcgaWQ9ImNsdXN0ZXJfUmVtb3RlIExvY2F0aW9uIj48cG9seWdvbiBmaWxsPSIjQUJFQkM2IiBwb2ludHM9IjE3OTUsMTYsMTgwNSw2LDIxMzQsNiwyMTM0LDExNywyMTI0LDEyNywxNzk1LDEyNywxNzk1LDE2IiBzdHlsZT0ic3Ryb2tlOiMyQzNFNTA7c3Ryb2tlLXdpZHRoOjEuMDsiLz48bGluZSBzdHlsZT0ic3Ryb2tlOiMyQzNFNTA7c3Ryb2tlLXdpZHRoOjEuMDsiIHgxPSIyMTI0IiB4Mj0iMjEzNCIgeTE9IjE2IiB5Mj0iNiIvPjxsaW5lIHN0eWxlPSJzdHJva2U6IzJDM0U1MDtzdHJva2Utd2lkdGg6MS4wOyIgeDE9IjE3OTUiIHgyPSIyMTI0IiB5MT0iMTYiIHkyPSIxNiIvPjxsaW5lIHN0eWxlPSJzdHJva2U6IzJDM0U1MDtzdHJva2Utd2lkdGg6MS4wOyIgeDE9IjIxMjQiIHgyPSIyMTI0IiB5MT0iMTYiIHkyPSIxMjciLz48dGV4dCBmaWxsPSIjMDAwMDAwIiBmb250LWZhbWlseT0ic2Fucy1zZXJpZiIgZm9udC1zaXplPSIxNCIgZm9udC13ZWlnaHQ9ImJvbGQiIGxlbmd0aEFkanVzdD0ic3BhY2luZyIgdGV4dExlbmd0aD0iMTA2IiB4PSIxOTA3LjUiIHk9IjMyLjIzNDQiPlJlbW90ZSBMb2NhdGlvbjwvdGV4dD48L2c+PCEtLWVudGl0eSBXUy0tPjxnIGlkPSJlbGVtX1dTIj48cmVjdCBmaWxsPSIjRkVGRUZFIiBoZWlnaHQ9IjQ0Ljk4NDQiIHJ4PSIyLjUiIHJ5PSIyLjUiIHN0eWxlPSJzdHJva2U6IzJDM0U1MDtzdHJva2Utd2lkdGg6MC41OyIgd2lkdGg9IjExMCIgeD0iNDk0IiB5PSIzOTcuNSIvPjxyZWN0IGZpbGw9IiNGRUZFRkUiIGhlaWdodD0iMTAiIHN0eWxlPSJzdHJva2U6IzJDM0U1MDtzdHJva2Utd2lkdGg6MC41OyIgd2lkdGg9IjE1IiB4PSI1ODQiIHk9IjQwMi41Ii8+PHJlY3QgZmlsbD0iI0ZFRkVGRSIgaGVpZ2h0PSIyIiBzdHlsZT0ic3Ryb2tlOiMyQzNFNTA7c3Ryb2tlLXdpZHRoOjAuNTsiIHdpZHRoPSI0IiB4PSI1ODIiIHk9IjQwNC41Ii8+PHJlY3QgZmlsbD0iI0ZFRkVGRSIgaGVpZ2h0PSIyIiBzdHlsZT0ic3Ryb2tlOiMyQzNFNTA7c3Ryb2tlLXdpZHRoOjAuNTsiIHdpZHRoPSI0IiB4PSI1ODIiIHk9IjQwOC41Ii8+PHRleHQgZmlsbD0iIzAwMDAwMCIgZm9udC1mYW1pbHk9InNhbnMtc2VyaWYiIGZvbnQtc2l6ZT0iMTQiIGxlbmd0aEFkanVzdD0ic3BhY2luZyIgdGV4dExlbmd0aD0iNzAiIHg9IjUwOSIgeT0iNDMwLjczNDQiPldlYiBTZXJ2ZXI8L3RleHQ+PC9nPjwhLS1lbnRpdHkgQVMtLT48ZyBpZD0iZWxlbV9BUyI+PHJlY3QgZmlsbD0iI0ZFRkVGRSIgaGVpZ2h0PSI0NC45ODQ0IiByeD0iMi41IiByeT0iMi41IiBzdHlsZT0ic3Ryb2tlOiMyQzNFNTA7c3Ryb2tlLXdpZHRoOjAuNTsiIHdpZHRoPSIxNjYiIHg9IjgwMCIgeT0iMzk3LjUiLz48cmVjdCBmaWxsPSIjRkVGRUZFIiBoZWlnaHQ9IjEwIiBzdHlsZT0ic3Ryb2tlOiMyQzNFNTA7c3Ryb2tlLXdpZHRoOjAuNTsiIHdpZHRoPSIxNSIgeD0iOTQ2IiB5PSI0MDIuNSIvPjxyZWN0IGZpbGw9IiNGRUZFRkUiIGhlaWdodD0iMiIgc3R5bGU9InN0cm9rZTojMkMzRTUwO3N0cm9rZS13aWR0aDowLjU7IiB3aWR0aD0iNCIgeD0iOTQ0IiB5PSI0MDQuNSIvPjxyZWN0IGZpbGw9IiNGRUZFRkUiIGhlaWdodD0iMiIgc3R5bGU9InN0cm9rZTojMkMzRTUwO3N0cm9rZS13aWR0aDowLjU7IiB3aWR0aD0iNCIgeD0iOTQ0IiB5PSI0MDguNSIvPjx0ZXh0IGZpbGw9IiMwMDAwMDAiIGZvbnQtZmFtaWx5PSJzYW5zLXNlcmlmIiBmb250LXNpemU9IjE0IiBsZW5ndGhBZGp1c3Q9InNwYWNpbmciIHRleHRMZW5ndGg9IjEyNiIgeD0iODE1IiB5PSI0MzAuNzM0NCI+QXBwbGljYXRpb24gU2VydmVyPC90ZXh0PjwvZz48IS0tZW50aXR5IERCLS0+PGcgaWQ9ImVsZW1fREIiPjxwYXRoIGQ9Ik02MzkuNSw0MDggQzYzOS41LDM5OCA3MDIsMzk4IDcwMiwzOTggQzcwMiwzOTggNzY0LjUsMzk4IDc2NC41LDQwOCBMNzY0LjUsNDMxLjk4NDQgQzc2NC41LDQ0MS45ODQ0IDcwMiw0NDEuOTg0NCA3MDIsNDQxLjk4NDQgQzcwMiw0NDEuOTg0NCA2MzkuNSw0NDEuOTg0NCA2MzkuNSw0MzEuOTg0NCBMNjM5LjUsNDA4ICIgZmlsbD0iI0YxRjFGMSIgc3R5bGU9InN0cm9rZTojMTgxODE4O3N0cm9rZS13aWR0aDowLjU7Ii8+PHBhdGggZD0iTTYzOS41LDQwOCBDNjM5LjUsNDE4IDcwMiw0MTggNzAyLDQxOCBDNzAyLDQxOCA3NjQuNSw0MTggNzY0LjUsNDA4ICIgZmlsbD0ibm9uZSIgc3R5bGU9InN0cm9rZTojMTgxODE4O3N0cm9rZS13aWR0aDowLjU7Ii8+PHRleHQgZmlsbD0iIzAwMDAwMCIgZm9udC1mYW1pbHk9InNhbnMtc2VyaWYiIGZvbnQtc2l6ZT0iMTQiIGxlbmd0aEFkanVzdD0ic3BhY2luZyIgdGV4dExlbmd0aD0iMTA1IiB4PSI2NDkuNSIgeT0iNDM1LjIzNDQiPkRhdGFiYXNlIFNlcnZlcjwvdGV4dD48L2c+PCEtLWVudGl0eSBBZG1pbiBXb3Jrc3RhdGlvbi0tPjxnIGlkPSJlbGVtX0FkbWluIFdvcmtzdGF0aW9uIj48cmVjdCBmaWxsPSIjRkVGRUZFIiBoZWlnaHQ9IjQ0Ljk4NDQiIHJ4PSIyLjUiIHJ5PSIyLjUiIHN0eWxlPSJzdHJva2U6IzJDM0U1MDtzdHJva2Utd2lkdGg6MC41OyIgd2lkdGg9IjE2MCIgeD0iMjc4IiB5PSIzOTcuNSIvPjxyZWN0IGZpbGw9IiNGRUZFRkUiIGhlaWdodD0iMTAiIHN0eWxlPSJzdHJva2U6IzJDM0U1MDtzdHJva2Utd2lkdGg6MC41OyIgd2lkdGg9IjE1IiB4PSI0MTgiIHk9IjQwMi41Ii8+PHJlY3QgZmlsbD0iI0ZFRkVGRSIgaGVpZ2h0PSIyIiBzdHlsZT0ic3Ryb2tlOiMyQzNFNTA7c3Ryb2tlLXdpZHRoOjAuNTsiIHdpZHRoPSI0IiB4PSI0MTYiIHk9IjQwNC41Ii8+PHJlY3QgZmlsbD0iI0ZFRkVGRSIgaGVpZ2h0PSIyIiBzdHlsZT0ic3Ryb2tlOiMyQzNFNTA7c3Ryb2tlLXdpZHRoOjAuNTsiIHdpZHRoPSI0IiB4PSI0MTYiIHk9IjQwOC41Ii8+PHRleHQgZmlsbD0iIzAwMDAwMCIgZm9udC1mYW1pbHk9InNhbnMtc2VyaWYiIGZvbnQtc2l6ZT0iMTQiIGxlbmd0aEFkanVzdD0ic3BhY2luZyIgdGV4dExlbmd0aD0iMTIwIiB4PSIyOTMiIHk9IjQzMC43MzQ0Ij5BZG1pbiBXb3Jrc3RhdGlvbjwvdGV4dD48L2c+PCEtLWVudGl0eSBEZXZlbG9wZXIgV29ya3N0YXRpb24tLT48ZyBpZD0iZWxlbV9EZXZlbG9wZXIgV29ya3N0YXRpb24iPjxyZWN0IGZpbGw9IiNGRUZFRkUiIGhlaWdodD0iNDQuOTg0NCIgcng9IjIuNSIgcnk9IjIuNSIgc3R5bGU9InN0cm9rZTojMkMzRTUwO3N0cm9rZS13aWR0aDowLjU7IiB3aWR0aD0iMTg3IiB4PSI1NS41IiB5PSIzOTcuNSIvPjxyZWN0IGZpbGw9IiNGRUZFRkUiIGhlaWdodD0iMTAiIHN0eWxlPSJzdHJva2U6IzJDM0U1MDtzdHJva2Utd2lkdGg6MC41OyIgd2lkdGg9IjE1IiB4PSIyMjIuNSIgeT0iNDAyLjUiLz48cmVjdCBmaWxsPSIjRkVGRUZFIiBoZWlnaHQ9IjIiIHN0eWxlPSJzdHJva2U6IzJDM0U1MDtzdHJva2Utd2lkdGg6MC41OyIgd2lkdGg9IjQiIHg9IjIyMC41IiB5PSI0MDQuNSIvPjxyZWN0IGZpbGw9IiNGRUZFRkUiIGhlaWdodD0iMiIgc3R5bGU9InN0cm9rZTojMkMzRTUwO3N0cm9rZS13aWR0aDowLjU7IiB3aWR0aD0iNCIgeD0iMjIwLjUiIHk9IjQwOC41Ii8+PHRleHQgZmlsbD0iIzAwMDAwMCIgZm9udC1mYW1pbHk9InNhbnMtc2VyaWYiIGZvbnQtc2l6ZT0iMTQiIGxlbmd0aEFkanVzdD0ic3BhY2luZyIgdGV4dExlbmd0aD0iMTQ3IiB4PSI3MC41IiB5PSI0MzAuNzM0NCI+RGV2ZWxvcGVyIFdvcmtzdGF0aW9uPC90ZXh0PjwvZz48IS0tZW50aXR5IENsb3VkIFNlcnZpY2UgMS0tPjxnIGlkPSJlbGVtX0Nsb3VkIFNlcnZpY2UgMSI+PHJlY3QgZmlsbD0iI0ZFRkVGRSIgaGVpZ2h0PSI0NC45ODQ0IiByeD0iMi41IiByeT0iMi41IiBzdHlsZT0ic3Ryb2tlOiMyQzNFNTA7c3Ryb2tlLXdpZHRoOjAuNTsiIHdpZHRoPSIxNDUiIHg9IjE2MDkuNSIgeT0iNjYiLz48cmVjdCBmaWxsPSIjRkVGRUZFIiBoZWlnaHQ9IjEwIiBzdHlsZT0ic3Ryb2tlOiMyQzNFNTA7c3Ryb2tlLXdpZHRoOjAuNTsiIHdpZHRoPSIxNSIgeD0iMTczNC41IiB5PSI3MSIvPjxyZWN0IGZpbGw9IiNGRUZFRkUiIGhlaWdodD0iMiIgc3R5bGU9InN0cm9rZTojMkMzRTUwO3N0cm9rZS13aWR0aDowLjU7IiB3aWR0aD0iNCIgeD0iMTczMi41IiB5PSI3MyIvPjxyZWN0IGZpbGw9IiNGRUZFRkUiIGhlaWdodD0iMiIgc3R5bGU9InN0cm9rZTojMkMzRTUwO3N0cm9rZS13aWR0aDowLjU7IiB3aWR0aD0iNCIgeD0iMTczMi41IiB5PSI3NyIvPjx0ZXh0IGZpbGw9IiMwMDAwMDAiIGZvbnQtZmFtaWx5PSJzYW5zLXNlcmlmIiBmb250LXNpemU9IjE0IiBsZW5ndGhBZGp1c3Q9InNwYWNpbmciIHRleHRMZW5ndGg9IjEwNSIgeD0iMTYyNC41IiB5PSI5OS4yMzQ0Ij5DbG91ZCBTZXJ2aWNlIDE8L3RleHQ+PC9nPjwhLS1lbnRpdHkgQ2xvdWQgU2VydmljZSAyLS0+PGcgaWQ9ImVsZW1fQ2xvdWQgU2VydmljZSAyIj48cmVjdCBmaWxsPSIjRkVGRUZFIiBoZWlnaHQ9IjQ0Ljk4NDQiIHJ4PSIyLjUiIHJ5PSIyLjUiIHN0eWxlPSJzdHJva2U6IzJDM0U1MDtzdHJva2Utd2lkdGg6MC41OyIgd2lkdGg9IjE0NSIgeD0iMTQyOS41IiB5PSI2NiIvPjxyZWN0IGZpbGw9IiNGRUZFRkUiIGhlaWdodD0iMTAiIHN0eWxlPSJzdHJva2U6IzJDM0U1MDtzdHJva2Utd2lkdGg6MC41OyIgd2lkdGg9IjE1IiB4PSIxNTU0LjUiIHk9IjcxIi8+PHJlY3QgZmlsbD0iI0ZFRkVGRSIgaGVpZ2h0PSIyIiBzdHlsZT0ic3Ryb2tlOiMyQzNFNTA7c3Ryb2tlLXdpZHRoOjAuNTsiIHdpZHRoPSI0IiB4PSIxNTUyLjUiIHk9IjczIi8+PHJlY3QgZmlsbD0iI0ZFRkVGRSIgaGVpZ2h0PSIyIiBzdHlsZT0ic3Ryb2tlOiMyQzNFNTA7c3Ryb2tlLXdpZHRoOjAuNTsiIHdpZHRoPSI0IiB4PSIxNTUyLjUiIHk9Ijc3Ii8+PHRleHQgZmlsbD0iIzAwMDAwMCIgZm9udC1mYW1pbHk9InNhbnMtc2VyaWYiIGZvbnQtc2l6ZT0iMTQiIGxlbmd0aEFkanVzdD0ic3BhY2luZyIgdGV4dExlbmd0aD0iMTA1IiB4PSIxNDQ0LjUiIHk9Ijk5LjIzNDQiPkNsb3VkIFNlcnZpY2UgMjwvdGV4dD48L2c+PCEtLWVudGl0eSBPZmZpY2UgRGVza3RvcCAxLS0+PGcgaWQ9ImVsZW1fT2ZmaWNlIERlc2t0b3AgMSI+PHJlY3QgZmlsbD0iI0ZFRkVGRSIgaGVpZ2h0PSI0NC45ODQ0IiByeD0iMi41IiByeT0iMi41IiBzdHlsZT0ic3Ryb2tlOiMyQzNFNTA7c3Ryb2tlLXdpZHRoOjAuNTsiIHdpZHRoPSIxNTIiIHg9IjEwMzQiIHk9IjY2Ii8+PHJlY3QgZmlsbD0iI0ZFRkVGRSIgaGVpZ2h0PSIxMCIgc3R5bGU9InN0cm9rZTojMkMzRTUwO3N0cm9rZS13aWR0aDowLjU7IiB3aWR0aD0iMTUiIHg9IjExNjYiIHk9IjcxIi8+PHJlY3QgZmlsbD0iI0ZFRkVGRSIgaGVpZ2h0PSIyIiBzdHlsZT0ic3Ryb2tlOiMyQzNFNTA7c3Ryb2tlLXdpZHRoOjAuNTsiIHdpZHRoPSI0IiB4PSIxMTY0IiB5PSI3MyIvPjxyZWN0IGZpbGw9IiNGRUZFRkUiIGhlaWdodD0iMiIgc3R5bGU9InN0cm9rZTojMkMzRTUwO3N0cm9rZS13aWR0aDowLjU7IiB3aWR0aD0iNCIgeD0iMTE2NCIgeT0iNzciLz48dGV4dCBmaWxsPSIjMDAwMDAwIiBmb250LWZhbWlseT0ic2Fucy1zZXJpZiIgZm9udC1zaXplPSIxNCIgbGVuZ3RoQWRqdXN0PSJzcGFjaW5nIiB0ZXh0TGVuZ3RoPSIxMTIiIHg9IjEwNDkiIHk9Ijk5LjIzNDQiPk9mZmljZSBEZXNrdG9wIDE8L3RleHQ+PC9nPjwhLS1lbnRpdHkgT2ZmaWNlIERlc2t0b3AgMi0tPjxnIGlkPSJlbGVtX09mZmljZSBEZXNrdG9wIDIiPjxyZWN0IGZpbGw9IiNGRUZFRkUiIGhlaWdodD0iNDQuOTg0NCIgcng9IjIuNSIgcnk9IjIuNSIgc3R5bGU9InN0cm9rZTojMkMzRTUwO3N0cm9rZS13aWR0aDowLjU7IiB3aWR0aD0iMTUyIiB4PSIxMjIxIiB5PSI2NiIvPjxyZWN0IGZpbGw9IiNGRUZFRkUiIGhlaWdodD0iMTAiIHN0eWxlPSJzdHJva2U6IzJDM0U1MDtzdHJva2Utd2lkdGg6MC41OyIgd2lkdGg9IjE1IiB4PSIxMzUzIiB5PSI3MSIvPjxyZWN0IGZpbGw9IiNGRUZFRkUiIGhlaWdodD0iMiIgc3R5bGU9InN0cm9rZTojMkMzRTUwO3N0cm9rZS13aWR0aDowLjU7IiB3aWR0aD0iNCIgeD0iMTM1MSIgeT0iNzMiLz48cmVjdCBmaWxsPSIjRkVGRUZFIiBoZWlnaHQ9IjIiIHN0eWxlPSJzdHJva2U6IzJDM0U1MDtzdHJva2Utd2lkdGg6MC41OyIgd2lkdGg9IjQiIHg9IjEzNTEiIHk9Ijc3Ii8+PHRleHQgZmlsbD0iIzAwMDAwMCIgZm9udC1mYW1pbHk9InNhbnMtc2VyaWYiIGZvbnQtc2l6ZT0iMTQiIGxlbmd0aEFkanVzdD0ic3BhY2luZyIgdGV4dExlbmd0aD0iMTEyIiB4PSIxMjM2IiB5PSI5OS4yMzQ0Ij5PZmZpY2UgRGVza3RvcCAyPC90ZXh0PjwvZz48IS0tZW50aXR5IE9mZmljZSBMYXB0b3AtLT48ZyBpZD0iZWxlbV9PZmZpY2UgTGFwdG9wIj48cmVjdCBmaWxsPSIjRkVGRUZFIiBoZWlnaHQ9IjQ0Ljk4NDQiIHJ4PSIyLjUiIHJ5PSIyLjUiIHN0eWxlPSJzdHJva2U6IzJDM0U1MDtzdHJva2Utd2lkdGg6MC41OyIgd2lkdGg9IjEzMSIgeD0iMTA0NC41IiB5PSIxODEiLz48cmVjdCBmaWxsPSIjRkVGRUZFIiBoZWlnaHQ9IjEwIiBzdHlsZT0ic3Ryb2tlOiMyQzNFNTA7c3Ryb2tlLXdpZHRoOjAuNTsiIHdpZHRoPSIxNSIgeD0iMTE1NS41IiB5PSIxODYiLz48cmVjdCBmaWxsPSIjRkVGRUZFIiBoZWlnaHQ9IjIiIHN0eWxlPSJzdHJva2U6IzJDM0U1MDtzdHJva2Utd2lkdGg6MC41OyIgd2lkdGg9IjQiIHg9IjExNTMuNSIgeT0iMTg4Ii8+PHJlY3QgZmlsbD0iI0ZFRkVGRSIgaGVpZ2h0PSIyIiBzdHlsZT0ic3Ryb2tlOiMyQzNFNTA7c3Ryb2tlLXdpZHRoOjAuNTsiIHdpZHRoPSI0IiB4PSIxMTUzLjUiIHk9IjE5MiIvPjx0ZXh0IGZpbGw9IiMwMDAwMDAiIGZvbnQtZmFtaWx5PSJzYW5zLXNlcmlmIiBmb250LXNpemU9IjE0IiBsZW5ndGhBZGp1c3Q9InNwYWNpbmciIHRleHRMZW5ndGg9IjkxIiB4PSIxMDU5LjUiIHk9IjIxNC4yMzQ0Ij5PZmZpY2UgTGFwdG9wPC90ZXh0PjwvZz48IS0tZW50aXR5IFJlbW90ZSBEZXNrdG9wLS0+PGcgaWQ9ImVsZW1fUmVtb3RlIERlc2t0b3AiPjxyZWN0IGZpbGw9IiNGRUZFRkUiIGhlaWdodD0iNDQuOTg0NCIgcng9IjIuNSIgcnk9IjIuNSIgc3R5bGU9InN0cm9rZTojMkMzRTUwO3N0cm9rZS13aWR0aDowLjU7IiB3aWR0aD0iMTM5IiB4PSIxOTc4LjUiIHk9IjY2Ii8+PHJlY3QgZmlsbD0iI0ZFRkVGRSIgaGVpZ2h0PSIxMCIgc3R5bGU9InN0cm9rZTojMkMzRTUwO3N0cm9rZS13aWR0aDowLjU7IiB3aWR0aD0iMTUiIHg9IjIwOTcuNSIgeT0iNzEiLz48cmVjdCBmaWxsPSIjRkVGRUZFIiBoZWlnaHQ9IjIiIHN0eWxlPSJzdHJva2U6IzJDM0U1MDtzdHJva2Utd2lkdGg6MC41OyIgd2lkdGg9IjQiIHg9IjIwOTUuNSIgeT0iNzMiLz48cmVjdCBmaWxsPSIjRkVGRUZFIiBoZWlnaHQ9IjIiIHN0eWxlPSJzdHJva2U6IzJDM0U1MDtzdHJva2Utd2lkdGg6MC41OyIgd2lkdGg9IjQiIHg9IjIwOTUuNSIgeT0iNzciLz48dGV4dCBmaWxsPSIjMDAwMDAwIiBmb250LWZhbWlseT0ic2Fucy1zZXJpZiIgZm9udC1zaXplPSIxNCIgbGVuZ3RoQWRqdXN0PSJzcGFjaW5nIiB0ZXh0TGVuZ3RoPSI5OSIgeD0iMTk5My41IiB5PSI5OS4yMzQ0Ij5SZW1vdGUgRGVza3RvcDwvdGV4dD48L2c+PCEtLWVudGl0eSBSZW1vdGUgTGFwdG9wLS0+PGcgaWQ9ImVsZW1fUmVtb3RlIExhcHRvcCI+PHJlY3QgZmlsbD0iI0ZFRkVGRSIgaGVpZ2h0PSI0NC45ODQ0IiByeD0iMi41IiByeT0iMi41IiBzdHlsZT0ic3Ryb2tlOiMyQzNFNTA7c3Ryb2tlLXdpZHRoOjAuNTsiIHdpZHRoPSIxMzIiIHg9IjE4MTEiIHk9IjY2Ii8+PHJlY3QgZmlsbD0iI0ZFRkVGRSIgaGVpZ2h0PSIxMCIgc3R5bGU9InN0cm9rZTojMkMzRTUwO3N0cm9rZS13aWR0aDowLjU7IiB3aWR0aD0iMTUiIHg9IjE5MjMiIHk9IjcxIi8+PHJlY3QgZmlsbD0iI0ZFRkVGRSIgaGVpZ2h0PSIyIiBzdHlsZT0ic3Ryb2tlOiMyQzNFNTA7c3Ryb2tlLXdpZHRoOjAuNTsiIHdpZHRoPSI0IiB4PSIxOTIxIiB5PSI3MyIvPjxyZWN0IGZpbGw9IiNGRUZFRkUiIGhlaWdodD0iMiIgc3R5bGU9InN0cm9rZTojMkMzRTUwO3N0cm9rZS13aWR0aDowLjU7IiB3aWR0aD0iNCIgeD0iMTkyMSIgeT0iNzciLz48dGV4dCBmaWxsPSIjMDAwMDAwIiBmb250LWZhbWlseT0ic2Fucy1zZXJpZiIgZm9udC1zaXplPSIxNCIgbGVuZ3RoQWRqdXN0PSJzcGFjaW5nIiB0ZXh0TGVuZ3RoPSI5MiIgeD0iMTgyNiIgeT0iOTkuMjM0NCI+UmVtb3RlIExhcHRvcDwvdGV4dD48L2c+PCEtLWVudGl0eSBDbG91ZF9TZXJ2aWNlXzEtLT48ZyBpZD0iZWxlbV9DbG91ZF9TZXJ2aWNlXzEiPjxlbGxpcHNlIGN4PSI2NTIiIGN5PSI4OC41IiBmaWxsPSIjRjFGMUYxIiByeD0iOCIgcnk9IjgiIHN0eWxlPSJzdHJva2U6IzE4MTgxODtzdHJva2Utd2lkdGg6MC41OyIvPjx0ZXh0IGZpbGw9IiMwMDAwMDAiIGZvbnQtZmFtaWx5PSJzYW5zLXNlcmlmIiBmb250LXNpemU9IjE0IiBsZW5ndGhBZGp1c3Q9InNwYWNpbmciIHRleHRMZW5ndGg9IjEwNSIgeD0iNTk5LjUiIHk9IjExOC43MzQ0Ij5DbG91ZF9TZXJ2aWNlXzE8L3RleHQ+PC9nPjwhLS1lbnRpdHkgQ2xvdWRfU2VydmljZV8yLS0+PGcgaWQ9ImVsZW1fQ2xvdWRfU2VydmljZV8yIj48ZWxsaXBzZSBjeD0iNzQ1IiBjeT0iMjAzLjUiIGZpbGw9IiNGMUYxRjEiIHJ4PSI4IiByeT0iOCIgc3R5bGU9InN0cm9rZTojMTgxODE4O3N0cm9rZS13aWR0aDowLjU7Ii8+PHRleHQgZmlsbD0iIzAwMDAwMCIgZm9udC1mYW1pbHk9InNhbnMtc2VyaWYiIGZvbnQtc2l6ZT0iMTQiIGxlbmd0aEFkanVzdD0ic3BhY2luZyIgdGV4dExlbmd0aD0iMTA1IiB4PSI2OTIuNSIgeT0iMjMzLjczNDQiPkNsb3VkX1NlcnZpY2VfMjwvdGV4dD48L2c+PCEtLWVudGl0eSBBZG1pbl9Xb3Jrc3RhdGlvbi0tPjxnIGlkPSJlbGVtX0FkbWluX1dvcmtzdGF0aW9uIj48ZWxsaXBzZSBjeD0iNTExIiBjeT0iMjAzLjUiIGZpbGw9IiNGMUYxRjEiIHJ4PSI4IiByeT0iOCIgc3R5bGU9InN0cm9rZTojMTgxODE4O3N0cm9rZS13aWR0aDowLjU7Ii8+PHRleHQgZmlsbD0iIzAwMDAwMCIgZm9udC1mYW1pbHk9InNhbnMtc2VyaWYiIGZvbnQtc2l6ZT0iMTQiIGxlbmd0aEFkanVzdD0ic3BhY2luZyIgdGV4dExlbmd0aD0iMTIwIiB4PSI0NTEiIHk9IjIzMy43MzQ0Ij5BZG1pbl9Xb3Jrc3RhdGlvbjwvdGV4dD48L2c+PCEtLWVudGl0eSBEZXZlbG9wZXJfV29ya3N0YXRpb24tLT48ZyBpZD0iZWxlbV9EZXZlbG9wZXJfV29ya3N0YXRpb24iPjxlbGxpcHNlIGN4PSI5MjEiIGN5PSIyMDMuNSIgZmlsbD0iI0YxRjFGMSIgcng9IjgiIHJ5PSI4IiBzdHlsZT0ic3Ryb2tlOiMxODE4MTg7c3Ryb2tlLXdpZHRoOjAuNTsiLz48dGV4dCBmaWxsPSIjMDAwMDAwIiBmb250LWZhbWlseT0ic2Fucy1zZXJpZiIgZm9udC1zaXplPSIxNCIgbGVuZ3RoQWRqdXN0PSJzcGFjaW5nIiB0ZXh0TGVuZ3RoPSIxNDciIHg9Ijg0Ny41IiB5PSIyMzMuNzM0NCI+RGV2ZWxvcGVyX1dvcmtzdGF0aW9uPC90ZXh0PjwvZz48IS0tZW50aXR5IE9mZmljZV9EZXNrdG9wXzEtLT48ZyBpZD0iZWxlbV9PZmZpY2VfRGVza3RvcF8xIj48ZWxsaXBzZSBjeD0iMTAzMSIgY3k9IjQyMCIgZmlsbD0iI0YxRjFGMSIgcng9IjgiIHJ5PSI4IiBzdHlsZT0ic3Ryb2tlOiMxODE4MTg7c3Ryb2tlLXdpZHRoOjAuNTsiLz48dGV4dCBmaWxsPSIjMDAwMDAwIiBmb250LWZhbWlseT0ic2Fucy1zZXJpZiIgZm9udC1zaXplPSIxNCIgbGVuZ3RoQWRqdXN0PSJzcGFjaW5nIiB0ZXh0TGVuZ3RoPSIxMTIiIHg9Ijk3NSIgeT0iNDUwLjIzNDQiPk9mZmljZV9EZXNrdG9wXzE8L3RleHQ+PC9nPjwhLS1lbnRpdHkgT2ZmaWNlX0Rlc2t0b3BfMi0tPjxnIGlkPSJlbGVtX09mZmljZV9EZXNrdG9wXzIiPjxlbGxpcHNlIGN4PSIxMDg0IiBjeT0iNDIwIiBmaWxsPSIjRjFGMUYxIiByeD0iOCIgcnk9IjgiIHN0eWxlPSJzdHJva2U6IzE4MTgxODtzdHJva2Utd2lkdGg6MC41OyIvPjx0ZXh0IGZpbGw9IiMwMDAwMDAiIGZvbnQtZmFtaWx5PSJzYW5zLXNlcmlmIiBmb250LXNpemU9IjE0IiBsZW5ndGhBZGp1c3Q9InNwYWNpbmciIHRleHRMZW5ndGg9IjExMiIgeD0iMTAyOCIgeT0iNDUwLjIzNDQiPk9mZmljZV9EZXNrdG9wXzI8L3RleHQ+PC9nPjwhLS1lbnRpdHkgT2ZmaWNlX0xhcHRvcC0tPjxnIGlkPSJlbGVtX09mZmljZV9MYXB0b3AiPjxlbGxpcHNlIGN4PSI3MDIiIGN5PSI1NzAuNSIgZmlsbD0iI0YxRjFGMSIgcng9IjgiIHJ5PSI4IiBzdHlsZT0ic3Ryb2tlOiMxODE4MTg7c3Ryb2tlLXdpZHRoOjAuNTsiLz48dGV4dCBmaWxsPSIjMDAwMDAwIiBmb250LWZhbWlseT0ic2Fucy1zZXJpZiIgZm9udC1zaXplPSIxNCIgbGVuZ3RoQWRqdXN0PSJzcGFjaW5nIiB0ZXh0TGVuZ3RoPSI5MSIgeD0iNjU2LjUiIHk9IjYwMC43MzQ0Ij5PZmZpY2VfTGFwdG9wPC90ZXh0PjwvZz48IS0tZW50aXR5IFJlbW90ZV9EZXNrdG9wLS0+PGcgaWQ9ImVsZW1fUmVtb3RlX0Rlc2t0b3AiPjxlbGxpcHNlIGN4PSIxMTM3IiBjeT0iNDIwIiBmaWxsPSIjRjFGMUYxIiByeD0iOCIgcnk9IjgiIHN0eWxlPSJzdHJva2U6IzE4MTgxODtzdHJva2Utd2lkdGg6MC41OyIvPjx0ZXh0IGZpbGw9IiMwMDAwMDAiIGZvbnQtZmFtaWx5PSJzYW5zLXNlcmlmIiBmb250LXNpemU9IjE0IiBsZW5ndGhBZGp1c3Q9InNwYWNpbmciIHRleHRMZW5ndGg9Ijk5IiB4PSIxMDg3LjUiIHk9IjQ1MC4yMzQ0Ij5SZW1vdGVfRGVza3RvcDwvdGV4dD48L2c+PCEtLWVudGl0eSBSZW1vdGVfTGFwdG9wLS0+PGcgaWQ9ImVsZW1fUmVtb3RlX0xhcHRvcCI+PGVsbGlwc2UgY3g9IjExOTAiIGN5PSI0MjAiIGZpbGw9IiNGMUYxRjEiIHJ4PSI4IiByeT0iOCIgc3R5bGU9InN0cm9rZTojMTgxODE4O3N0cm9rZS13aWR0aDowLjU7Ii8+PHRleHQgZmlsbD0iIzAwMDAwMCIgZm9udC1mYW1pbHk9InNhbnMtc2VyaWYiIGZvbnQtc2l6ZT0iMTQiIGxlbmd0aEFkanVzdD0ic3BhY2luZyIgdGV4dExlbmd0aD0iOTIiIHg9IjExNDQiIHk9IjQ1MC4yMzQ0Ij5SZW1vdGVfTGFwdG9wPC90ZXh0PjwvZz48IS0tbGluayBDbG91ZF9TZXJ2aWNlXzEgdG8gQ2xvdWRfU2VydmljZV8yLS0+PCEtLXJldmVyc2UgbGluayBDbG91ZF9TZXJ2aWNlXzEgdG8gV1MtLT48ZyBpZD0ibGlua19DbG91ZF9TZXJ2aWNlXzFfV1MiPjxwYXRoIGQ9Ik02NDcuNjYwNywxMDMuMzY3IEM2MzQuNTYwNywxNDUuMjk3IDU3Ni4zMywzMzEuNTYgNTU1Ljg2LDM5Ny4wNSAiIGZpbGw9Im5vbmUiIGlkPSJDbG91ZF9TZXJ2aWNlXzEtYmFja3RvLVdTIiBzdHlsZT0ic3Ryb2tlOiMxODE4MTg7c3Ryb2tlLXdpZHRoOjEuMDsiLz48cG9seWdvbiBmaWxsPSIjMTgxODE4IiBwb2ludHM9IjY0OS40NSw5Ny42NCw2NDIuOTQ4MSwxMDUuMDM3Nyw2NDcuOTU4OSwxMDIuNDEyNSw2NTAuNTg0MSwxMDcuNDIzMyw2NDkuNDUsOTcuNjQiIHN0eWxlPSJzdHJva2U6IzE4MTgxODtzdHJva2Utd2lkdGg6MS4wOyIvPjwvZz48IS0tcmV2ZXJzZSBsaW5rIENsb3VkX1NlcnZpY2VfMiB0byBBUy0tPjxnIGlkPSJsaW5rX0Nsb3VkX1NlcnZpY2VfMl9BUyI+PHBhdGggZD0iTTc0Ni40NTAxLDIxOC44MjkgQzc0OC4xMzAxLDIzMy4xMjkgNzUyLjY0LDI1Ni42IDc2OCwyNzUuNSBDNzcyLjUyLDI4MS4wNiA3NzYuNjMsMjc4Ljc1IDc4MiwyODMuNSBDODIwLjQ0LDMxNy41NCA4NTMuNTIsMzY4LjM2IDg3MC42MSwzOTcuMTEgIiBmaWxsPSJub25lIiBpZD0iQ2xvdWRfU2VydmljZV8yLWJhY2t0by1BUyIgc3R5bGU9InN0cm9rZTojMTgxODE4O3N0cm9rZS13aWR0aDoxLjA7Ii8+PHBvbHlnb24gZmlsbD0iIzE4MTgxOCIgcG9pbnRzPSI3NDUuNzUsMjEyLjg3LDc0Mi44Mjc0LDIyMi4yNzUyLDc0Ni4zMzM0LDIxNy44MzU4LDc1MC43NzI4LDIyMS4zNDE4LDc0NS43NSwyMTIuODciIHN0eWxlPSJzdHJva2U6IzE4MTgxODtzdHJva2Utd2lkdGg6MS4wOyIvPjwvZz48IS0tbGluayBXUyB0byBEQi0tPjxnIGlkPSJsaW5rX1dTX0RCIj48cGF0aCBkPSJNNjA0LjI4LDQyMCBDNjE1Ljk5LDQyMCA2MjEuNjksNDIwIDYzMy40LDQyMCAiIGZpbGw9Im5vbmUiIGlkPSJXUy10by1EQiIgc3R5bGU9InN0cm9rZTojMTgxODE4O3N0cm9rZS13aWR0aDoxLjA7Ii8+PHBvbHlnb24gZmlsbD0iIzE4MTgxOCIgcG9pbnRzPSI2MzkuNCw0MjAsNjMwLjQsNDE2LDYzNC40LDQyMCw2MzAuNCw0MjQsNjM5LjQsNDIwIiBzdHlsZT0ic3Ryb2tlOiMxODE4MTg7c3Ryb2tlLXdpZHRoOjEuMDsiLz48L2c+PCEtLXJldmVyc2UgbGluayBEQiB0byBBUy0tPjxnIGlkPSJsaW5rX0RCX0FTIj48cGF0aCBkPSJNNzcwLjU3LDQyMCBDNzgyLjI5LDQyMCA3ODguMDEsNDIwIDc5OS43Myw0MjAgIiBmaWxsPSJub25lIiBpZD0iREItYmFja3RvLUFTIiBzdHlsZT0ic3Ryb2tlOiMxODE4MTg7c3Ryb2tlLXdpZHRoOjEuMDsiLz48cG9seWdvbiBmaWxsPSIjMTgxODE4IiBwb2ludHM9Ijc2NC41Nyw0MjAsNzczLjU3LDQyNCw3NjkuNTcsNDIwLDc3My41Nyw0MTYsNzY0LjU3LDQyMCIgc3R5bGU9InN0cm9rZTojMTgxODE4O3N0cm9rZS13aWR0aDoxLjA7Ii8+PC9nPjwhLS1saW5rIEFkbWluX1dvcmtzdGF0aW9uIHRvIFdTLS0+PGcgaWQ9ImxpbmtfQWRtaW5fV29ya3N0YXRpb25fV1MiPjxwYXRoIGQ9Ik01MTIuNDQsMjEyLjY1IEM1MTcuODQsMjQzLjEgNTM1Ljg5NDMsMzQ0Ljk5MTggNTQ0LjEyNDMsMzkxLjQ5MTggIiBmaWxsPSJub25lIiBpZD0iQWRtaW5fV29ya3N0YXRpb24tdG8tV1MiIHN0eWxlPSJzdHJva2U6IzE4MTgxODtzdHJva2Utd2lkdGg6MS4wOyIvPjxwb2x5Z29uIGZpbGw9IiMxODE4MTgiIHBvaW50cz0iNTQ1LjE3LDM5Ny40LDU0Ny41NDAzLDM4Ny44NDA2LDU0NC4yOTg2LDM5Mi40NzY1LDUzOS42NjI3LDM4OS4yMzQ5LDU0NS4xNywzOTcuNCIgc3R5bGU9InN0cm9rZTojMTgxODE4O3N0cm9rZS13aWR0aDoxLjA7Ii8+PC9nPjwhLS1saW5rIERldmVsb3Blcl9Xb3Jrc3RhdGlvbiB0byBBUy0tPjxnIGlkPSJsaW5rX0RldmVsb3Blcl9Xb3Jrc3RhdGlvbl9BUyI+PHBhdGggZD0iTTkxOS41NiwyMTIuNjUgQzkxNC4xNiwyNDMuMSA4OTYuMTA1NywzNDQuOTkxOCA4ODcuODc1NywzOTEuNDkxOCAiIGZpbGw9Im5vbmUiIGlkPSJEZXZlbG9wZXJfV29ya3N0YXRpb24tdG8tQVMiIHN0eWxlPSJzdHJva2U6IzE4MTgxODtzdHJva2Utd2lkdGg6MS4wOyIvPjxwb2x5Z29uIGZpbGw9IiMxODE4MTgiIHBvaW50cz0iODg2LjgzLDM5Ny40LDg5Mi4zMzczLDM4OS4yMzQ5LDg4Ny43MDE0LDM5Mi40NzY1LDg4NC40NTk3LDM4Ny44NDA2LDg4Ni44MywzOTcuNCIgc3R5bGU9InN0cm9rZTojMTgxODE4O3N0cm9rZS13aWR0aDoxLjA7Ii8+PC9nPjwhLS1saW5rIE9mZmljZV9EZXNrdG9wXzEgdG8gV1MtLT48ZyBpZD0ibGlua19PZmZpY2VfRGVza3RvcF8xX1dTIj48cGF0aCBkPSJNMTAzMC42Miw0MTAuNzYgQzEwMjkuMDgsMzg2LjkgMTAyMS4zMSwzMjMuMTkgOTgyLDI5Ni41IEM5MTUuODIsMjUxLjU2IDY5MS40OSwyNTYuODYgNjIyLDI5Ni41IEM1ODQuMDMsMzE4LjE2IDU2NS41NjQxLDM2Mi40MjIxIDU1Ni42MDQxLDM5MS43MzIxICIgZmlsbD0ibm9uZSIgaWQ9Ik9mZmljZV9EZXNrdG9wXzEtdG8tV1MiIHN0eWxlPSJzdHJva2U6IzE4MTgxODtzdHJva2Utd2lkdGg6MS4wO3N0cm9rZS1kYXNoYXJyYXk6Ny4wLDcuMDsiLz48cG9seWdvbiBmaWxsPSIjMTgxODE4IiBwb2ludHM9IjU1NC44NSwzOTcuNDcsNTYxLjMwNjMsMzkwLjAzMjUsNTU2LjMxMTcsMzkyLjY4ODQsNTUzLjY1NTgsMzg3LjY5MzgsNTU0Ljg1LDM5Ny40NyIgc3R5bGU9InN0cm9rZTojMTgxODE4O3N0cm9rZS13aWR0aDoxLjA7Ii8+PHRleHQgZmlsbD0iIzAwMDAwMCIgZm9udC1mYW1pbHk9InNhbnMtc2VyaWYiIGZvbnQtc2l6ZT0iMTMiIGxlbmd0aEFkanVzdD0ic3BhY2luZyIgdGV4dExlbmd0aD0iMjEiIHg9Ijc3Mi41IiB5PSIyNzMuNzg5MSI+VlBOPC90ZXh0PjwvZz48IS0tbGluayBPZmZpY2VfRGVza3RvcF8yIHRvIEFTLS0+PGcgaWQ9ImxpbmtfT2ZmaWNlX0Rlc2t0b3BfMl9BUyI+PHBhdGggZD0iTTEwODUuNDIsNDEwLjk2IEMxMDg4LjUzLDM4Ny41OCAxMDkzLjA1LDMyNC45NCAxMDU4LDI5Ni41IEMxMDAwLjU0LDI0OS44NyA5MjkuODg4MywzNDUuMzAyNSA4OTkuODQ4MywzOTIuMzYyNSAiIGZpbGw9Im5vbmUiIGlkPSJPZmZpY2VfRGVza3RvcF8yLXRvLUFTIiBzdHlsZT0ic3Ryb2tlOiMxODE4MTg7c3Ryb2tlLXdpZHRoOjEuMDtzdHJva2UtZGFzaGFycmF5OjcuMCw3LjA7Ii8+PHBvbHlnb24gZmlsbD0iIzE4MTgxOCIgcG9pbnRzPSI4OTYuNjIsMzk3LjQyLDkwNC44MzQxLDM5MS45ODYxLDg5OS4zMTAzLDM5My4yMDU1LDg5OC4wOTA5LDM4Ny42ODE2LDg5Ni42MiwzOTcuNDIiIHN0eWxlPSJzdHJva2U6IzE4MTgxODtzdHJva2Utd2lkdGg6MS4wOyIvPjx0ZXh0IGZpbGw9IiMwMDAwMDAiIGZvbnQtZmFtaWx5PSJzYW5zLXNlcmlmIiBmb250LXNpemU9IjEzIiBsZW5ndGhBZGp1c3Q9InNwYWNpbmciIHRleHRMZW5ndGg9IjIxIiB4PSIxMDA5LjUiIHk9IjI3My43ODkxIj5WUE48L3RleHQ+PC9nPjwhLS1yZXZlcnNlIGxpbmsgREIgdG8gT2ZmaWNlX0xhcHRvcC0tPjxnIGlkPSJsaW5rX0RCX09mZmljZV9MYXB0b3AiPjxwYXRoIGQ9Ik03MDIsNDQ4LjI4IEM3MDIsNDgxLjY0IDcwMiw1MzguNzcgNzAyLDU2MS4yOCAiIGZpbGw9Im5vbmUiIGlkPSJEQi1iYWNrdG8tT2ZmaWNlX0xhcHRvcCIgc3R5bGU9InN0cm9rZTojMTgxODE4O3N0cm9rZS13aWR0aDoxLjA7c3Ryb2tlLWRhc2hhcnJheTo3LjAsNy4wOyIvPjxwb2x5Z29uIGZpbGw9IiMxODE4MTgiIHBvaW50cz0iNzAyLDQ0Mi4yOCw2OTgsNDUxLjI4LDcwMiw0NDcuMjgsNzA2LDQ1MS4yOCw3MDIsNDQyLjI4IiBzdHlsZT0ic3Ryb2tlOiMxODE4MTg7c3Ryb2tlLXdpZHRoOjEuMDsiLz48dGV4dCBmaWxsPSIjMDAwMDAwIiBmb250LWZhbWlseT0ic2Fucy1zZXJpZiIgZm9udC1zaXplPSIxMyIgbGVuZ3RoQWRqdXN0PSJzcGFjaW5nIiB0ZXh0TGVuZ3RoPSIyMSIgeD0iNzAzIiB5PSI1MTEuNzg5MSI+VlBOPC90ZXh0PjwvZz48IS0tbGluayBSZW1vdGVfRGVza3RvcCB0byBXUy0tPjxnIGlkPSJsaW5rX1JlbW90ZV9EZXNrdG9wX1dTIj48cGF0aCBkPSJNMTEzOC40Miw0MTAuOTYgQzExNDEuNTMsMzg3LjU4IDExNDYuMDUsMzI0Ljk0IDExMTEsMjk2LjUgQzEwNjguODEsMjYyLjI3IDY2OS4xOSwyNjkuNTcgNjIyLDI5Ni41IEM1ODQuMDMsMzE4LjE2IDU2NS41NjQxLDM2Mi40MjIxIDU1Ni42MDQxLDM5MS43MzIxICIgZmlsbD0ibm9uZSIgaWQ9IlJlbW90ZV9EZXNrdG9wLXRvLVdTIiBzdHlsZT0ic3Ryb2tlOiMxODE4MTg7c3Ryb2tlLXdpZHRoOjEuMDsiLz48cG9seWdvbiBmaWxsPSIjMTgxODE4IiBwb2ludHM9IjU1NC44NSwzOTcuNDcsNTYxLjMwNjMsMzkwLjAzMjUsNTU2LjMxMTcsMzkyLjY4ODQsNTUzLjY1NTgsMzg3LjY5MzgsNTU0Ljg1LDM5Ny40NyIgc3R5bGU9InN0cm9rZTojMTgxODE4O3N0cm9rZS13aWR0aDoxLjA7Ii8+PHRleHQgZmlsbD0iIzAwMDAwMCIgZm9udC1mYW1pbHk9InNhbnMtc2VyaWYiIGZvbnQtc2l6ZT0iMTMiIGxlbmd0aEFkanVzdD0ic3BhY2luZyIgdGV4dExlbmd0aD0iODkiIHg9IjgwNS41IiB5PSIyNzMuNzg5MSI+UmVtb3RlIEFjY2VzczwvdGV4dD48L2c+PCEtLWxpbmsgUmVtb3RlX0xhcHRvcCB0byBBUy0tPjxnIGlkPSJsaW5rX1JlbW90ZV9MYXB0b3BfQVMiPjxwYXRoIGQ9Ik0xMTkxLjQyLDQxMC45NiBDMTE5NC41MywzODcuNTggMTE5OS4wNSwzMjQuOTQgMTE2NCwyOTYuNSBDMTEwOS4xMiwyNTEuOTcgMTA3MC4yLDI2OS4yNiAxMDA1LDI5Ni41IEM5NTYuMDYsMzE2Ljk1IDkyMC4wNzcsMzYyLjY1NjkgOTAwLjI4NywzOTIuMzU2OSAiIGZpbGw9Im5vbmUiIGlkPSJSZW1vdGVfTGFwdG9wLXRvLUFTIiBzdHlsZT0ic3Ryb2tlOiMxODE4MTg7c3Ryb2tlLXdpZHRoOjEuMDsiLz48cG9seWdvbiBmaWxsPSIjMTgxODE4IiBwb2ludHM9Ijg5Ni45NiwzOTcuMzUsOTA1LjI3OTMsMzkyLjA3ODQsODk5LjczMjUsMzkzLjE4OTEsODk4LjYyMTgsMzg3LjY0MjQsODk2Ljk2LDM5Ny4zNSIgc3R5bGU9InN0cm9rZTojMTgxODE4O3N0cm9rZS13aWR0aDoxLjA7Ii8+PHRleHQgZmlsbD0iIzAwMDAwMCIgZm9udC1mYW1pbHk9InNhbnMtc2VyaWYiIGZvbnQtc2l6ZT0iMTMiIGxlbmd0aEFkanVzdD0ic3BhY2luZyIgdGV4dExlbmd0aD0iODkiIHg9IjEwNjQuNSIgeT0iMjczLjc4OTEiPlJlbW90ZSBBY2Nlc3M8L3RleHQ+PC9nPjwhLS1TUkM9W1pMOURRLUNtNUJwaEx3WmtzTWRaaTNxaW1VMmxHQTVxYm1yaTNZNDRuTnY5Sk1uOW83OXBNRmhWTHZQYW50N1RmMHU0TXBEbHRocEhreWpmTWpHUHVCY2lFU2Q0eDI1YlBTY2VaLXUtOE5qNmZLakVLQjRJN1llR3hvMWtxWjhZb092S1M5aThyTDRvVmZFTjVncEVWOElnT3F1djRRSjRfbjFNcHV3YW51RFdEU3FZTFoyMXh2RGF1SXJjNmJDWlNLUTFJaWpqZGQzOE5vSkR4dW1wYU82bWMxVkRhWC1GNmxsR192R2ZXclY0V1lILU1hb19BU1BMREpiU3Jta0pDN2h3WGp1N0dqZ1I0d2xXU1FIYzFrNU92UlFGaXpIdFh3RVloZGhtUExCRTJkUk80MXJDQWhuUXVsYnlKcm54eF92T0lTMXZhUVQ0dmVwc0l1RWxJamxiQzZ4ck13eWkzYkxQanBfLUM3dGRrUGNEYVdBX1dabW5TVXBGaUd3b0NnVHVmT3VoZ0dyajZaNnhPc1M3d25aVWVNMVNmTjZMZ3VGTGd6VnMxVGRzTXFWd2w3NlVmdTJkNnBFak1MSF9aRThEQURzYkhLbm05ZVc0XzZrX0x5b2tYVmQ0aUo1YlVibXc3NUF5aG9hbFhBbDNJeG9weTBUQWZsZ19DN0VGZEdEeFJrTDduRGwyU040VG1ETzZpOXJZVF9zTVBuZEdaT2lsOEctZkpORGh4bGUzTzhnMlNTMTNrYUphWHBVZm0zWktuMEJzeldsZk5UWnN4WFV4NkpqSFhRd01nNWswS0tBbUhDWWFqaE1KQS15SnRNaEliRUVWc0ZkeC16S1BhaG1wQVZYNENYN1hJU3FkWlM0RUhZUjJMa0d5YWtiWjBteEk1QWhBUVNiTWhFQzY4enBfXS0tPjwvZz48L3N2Zz4=;" vertex="1" parent="1">
            <mxGeometry x="-650" y="120" width="2151" height="609" as="geometry" />
          </mxCell>
        </UserObject>
        <UserObject label="" plantUmlData="{&#xa;  &quot;data&quot;: &quot;@startuml\n!include &lt;tupadr3/common&gt;\n!include &lt;tupadr3/font-awesome/mobile&gt;\n!include &lt;tupadr3/font-awesome/server&gt;\n!include &lt;tupadr3/font-awesome/cloud&gt;\n\nskinparam {\n    backgroundColor #EEF2F3\n    node {\n        BackgroundColor #AED6F1\n        BorderColor #2C3E50\n    }\n    component {\n        BackgroundColor #FEFEFE\n        BorderColor #2C3E50\n    }\n}\n\ncloud \&quot;Internet\&quot; as Internet {\n    [Cloud Service] &lt;&lt;fa-cloud&gt;&gt;\n}\n\nnode \&quot;Passenger&#39;s Mobile Device\&quot; as Mobile {\n    [Digital Identity Wallet] &lt;&lt;fa-mobile&gt;&gt;\n}\n\nnode \&quot;Airline Infrastructure\&quot; as Airline {\n    node \&quot;Check-in System\&quot; as Checkin {\n        [Online Check-in Portal] &lt;&lt;fa-server&gt;&gt;\n        [Airport Kiosk] &lt;&lt;fa-desktop&gt;&gt;\n    }\n    [Boarding System] &lt;&lt;fa-server&gt;&gt;\n}\n\nnode \&quot;Government Authority\&quot; as Gov {\n    [Document Verification Service] &lt;&lt;fa-server&gt;&gt;\n    [National Document Database] &lt;&lt;fa-database&gt;&gt;\n}\n\nMobile -down-&gt; Checkin: \&quot;Shares VCs\\nfor Check-in\&quot;\nCheckin -right-&gt; Gov: \&quot;Verifies VCs\&quot;\nGov -down-&gt; [National Document Database]: \&quot;Checks Document Validity\&quot;\n\nCheckin -down-&gt; [Boarding System]: \&quot;Confirms Check-in\&quot;\n[Boarding System] .right.&gt; [Passenger&#39;s Mobile Device]: \&quot;Issues Boarding Pass\&quot;\n\n@enduml\n&quot;,&#xa;  &quot;format&quot;: &quot;svg&quot;&#xa;}" id="8LzM_8HPgckV4DCLB8SA-3">
          <mxCell style="shape=image;noLabel=1;verticalAlign=top;aspect=fixed;imageAspect=0;image=data:image/svg+xml,PD94bWwgdmVyc2lvbj0iMS4wIiBlbmNvZGluZz0idXMtYXNjaWkiIHN0YW5kYWxvbmU9Im5vIj8+PHN2ZyB4bWxucz0iaHR0cDovL3d3dy53My5vcmcvMjAwMC9zdmciIHhtbG5zOnhsaW5rPSJodHRwOi8vd3d3LnczLm9yZy8xOTk5L3hsaW5rIiBjb250ZW50U3R5bGVUeXBlPSJ0ZXh0L2NzcyIgaGVpZ2h0PSI1NThweCIgcHJlc2VydmVBc3BlY3RSYXRpbz0ibm9uZSIgc3R5bGU9IndpZHRoOjE0NzRweDtoZWlnaHQ6NTU4cHg7YmFja2dyb3VuZDojRUVGMkYzOyIgdmVyc2lvbj0iMS4xIiB2aWV3Qm94PSIwIDAgMTQ3NCA1NTgiIHdpZHRoPSIxNDc0cHgiIHpvb21BbmRQYW49Im1hZ25pZnkiPjxkZWZzLz48Zz48cmVjdCBmaWxsPSIjRUVGMkYzIiBoZWlnaHQ9IjU1OCIgc3R5bGU9InN0cm9rZTpub25lO3N0cm9rZS13aWR0aDoxLjA7IiB3aWR0aD0iMTQ3NCIgeD0iMCIgeT0iMCIvPjwhLS1jbHVzdGVyIEludGVybmV0LS0+PGcgaWQ9ImNsdXN0ZXJfSW50ZXJuZXQiPjxwYXRoIGQ9Ik02NTYuMjYyLDMzLjY5NTEgQzY1OC44MzAyLDI3LjE5MzMgNjY0Ljg4NSwyNy4wMjExIDY2OC45NDk4LDMyLjA0ODEgQzY3Mi42NjI4LDI3LjAxNzMgNjc2LjgyNTUsMjguMzg1IDY3OS4yMDEyLDMzLjQxMTMgQzY4Mi4wMjEzLDI3LjM0NDcgNjg2LjU1MywyNy4yMjg0IDY5MC42MTk3LDMyLjExMTMgQzY5NC42NjcyLDI3LjUxMjMgNjk4LjUzOTUsMjcuMzk0OCA3MDIuMDg0OCwzMi42OTMxIEM3MDQuNTU2NSwyOC4wNTYyIDcwOS4xNjUsMjcuNTI5NSA3MTIuMTk0NiwzMi4wNzkyIEM3MTUuMzcwOSwyNi45MjgyIDcxOS40MDU5LDI2LjA3MTUgNzIzLjE5LDMxLjQ0NDIgQzcyNy4zOTA2LDI2LjI1OSA3MzIuMjIxMywyNi41OTkxIDczNS4yMDQxLDMyLjczNjQgQzczNy43MTE5LDI3LjA2NDIgNzQxLjUzNjYsMjYuOTE2NSA3NDUuNDc2NywzMS4yNjg2IEM3NDkuMjI5MSwyNC43MDczIDc1NC4yNjkyLDI1LjExMzMgNzU4LjAxNjQsMzEuMjczOCBDNzYxLjMwNDIsMjcuMjI1NiA3NjUuNTQ0NywyNi4yNzgyIDc2OC4zNDU1LDMxLjc5OTQgQzc3Mi40ODU5LDI2LjcxNyA3NzYuODI5MywyNy42ODYxIDc3OS4wNzc3LDMzLjYzOTMgQzc4Ni44MDkyLDI3LjkyOSA3OTMuOTY5MiwyOC45OTQzIDc5NywzOSBDNzk4LjM0MSwzOC42MTg5IDc5OC44NTQzLDM5LjA4NTUgNzk4LjczNzgsNDAuNDUwNiBDODA1LjcwMTQsNDMuMTkyMiA4MDcuODcyMSw0OS4zOTU0IDgwMS4zMDMzLDU0LjU5MiBDODA4LjUxMzksNTcuMzExMiA4MDkuNjUzMSw2MS41NzM5IDgwMy43ODk1LDY2LjkyODEgQzgxMS41OTgyLDY5LjM0NTkgODEyLjAzMTIsNzUuOTMzMyA4MDUuOTk1OCw4MC41ODc0IEM4MTIuNjM1Nyw4Ni44MDczIDgxMS42MDAzLDkxLjc3ODIgODAzLjAxMTgsOTQuODAxMSBDODA3LjUwOTcsOTkuNzU2MyA4MDYuOTE4NCwxMDQuODU4OCA4MDAuNTE4MiwxMDcuNzA4NSBDODA3LjA0MTcsMTE4LjE5NzIgODAyLjgxNTksMTI3LjA1NTcgNzkwLDEyNyBDNzkwLjYxMjEsMTI2Ljk0NTggNzkxLjAyMzcsMTI3LjI4MDQgNzkwLjc4ODgsMTI3LjkzODIgQzc4Ny44Nzk3LDEzMy4wODQ3IDc4NC43OTU4LDEzNC4wNzUxIDc4MC4zMTkyLDEyOS42NTMzIEM3NzcuNDI2LDEzNi4wNTA1IDc3My4xODIsMTM2LjM3ODIgNzY5LjAyNjYsMTMwLjg0ODQgQzc2Ni4yMjYyLDEzNS42NDM1IDc2MS4xMTYzLDEzNi4zNjQ1IDc1Ny43NTY1LDEzMS41MDExIEM3NTQuMzI3OCwxMzYuNTg4MiA3NDguODcyMiwxMzYuNTM5NCA3NDUuNjkwOCwxMzEuMjE0NSBDNzQyLjYzMywxMzUuOTYwMSA3MzguOTc5NCwxMzYuMzQ3NCA3MzUuMTQ4LDEzMi4xMjM4IEM3MzMuMTc5NiwxMzcuMzIyNSA3MjguNjUxNywxMzguNzE2OSA3MjQuMzUwMSwxMzQuOTI2NSBDNzE5LjE0OTksMTQwLjQwMjggNzE1LjY2MjIsMTM4LjUxMTkgNzEyLjY3NzEsMTMyLjY0NjcgQzcwOS42MDQ4LDEzNy4xNTAxIDcwNS41NDI5LDEzNy4zNjM4IDcwMi43OTk3LDEzMi4zMDY2IEM2OTkuMDE2MiwxMzcuODU3OCA2OTMuNjcyMiwxMzYuMTMxOSA2OTEuNjEyOSwxMzAuNTcwOSBDNjg3Ljg5MDYsMTM2Ljc5MDQgNjgyLjY3OSwxMzUuNjY3MiA2NzkuNjA0MywxMjkuOTIxIEM2NzUuMjY5NCwxMzUuMTA0NCA2NzAuNjU0MywxMzUuMzQyNyA2NjcuNzU2OCwxMjguNTA0NSBDNjU3LjgyNzUsMTM2LjExOTEgNjUwLjY5MDMsMTMwLjU1NjUgNjQ5LDEyMCBDNjQ5LjQ0NzUsMTE5LjgxNTkgNjQ5Ljg1MzQsMTIwLjA4MTggNjQ5Ljc4MzcsMTIwLjU4NzUgQzY0Mi41OTYzLDExNy40ODExIDY0MC41Mzk4LDExMi43MDYyIDY0Ni45MDQyLDEwNi43NzQ3IEM2MzkuNjcxOSwxMDMuNTAyNyA2MzcuNzIzMiw5OS4zNzIxIDY0NC4wMDI4LDkzLjIwOTkgQzYzNi43NDI0LDkxLjU1NTcgNjM1Ljk3MTgsODYuNjE2OCA2NDAuNDkyOSw4MS40NDcxIEM2MzQuOTk1LDc1Ljk3MiA2MzUuOTM5Myw2OC42Mjg5IDY0NC41ODgzLDY3LjIyODUgQzYzOC4zOTg5LDYyLjkwNjUgNjQwLjg1NjgsNTYuOTQ0NCA2NDYuNTgwNiw1NC40ODQ4IEM2MzcuNjAwNCw0My43MzA4IDY0MS44Mzk3LDMzLjA2IDY1NiwzMiBDNjU2Ljk1NTksMzIuMzExMiA2NTcuMDI2OCwzMy4xMTc5IDY1Ni4yNjIsMzMuNjk1MSAiIGZpbGw9Im5vbmUiIHN0eWxlPSJzdHJva2U6IzE4MTgxODtzdHJva2Utd2lkdGg6MS4wOyIvPjx0ZXh0IGZpbGw9IiMwMDAwMDAiIGZvbnQtZmFtaWx5PSJzYW5zLXNlcmlmIiBmb250LXNpemU9IjE0IiBmb250LXdlaWdodD0iYm9sZCIgbGVuZ3RoQWRqdXN0PSJzcGFjaW5nIiB0ZXh0TGVuZ3RoPSI1NiIgeD0iNjk1IiB5PSI1MC4yMzQ0Ij5JbnRlcm5ldDwvdGV4dD48L2c+PCEtLWNsdXN0ZXIgTW9iaWxlLS0+PGcgaWQ9ImNsdXN0ZXJfTW9iaWxlIj48cG9seWdvbiBmaWxsPSIjQUVENkYxIiBwb2ludHM9IjQ4LDE2LDU4LDYsMzE3LDYsMzE3LDEzMywzMDcsMTQzLDQ4LDE0Myw0OCwxNiIgc3R5bGU9InN0cm9rZTojMkMzRTUwO3N0cm9rZS13aWR0aDoxLjA7Ii8+PGxpbmUgc3R5bGU9InN0cm9rZTojMkMzRTUwO3N0cm9rZS13aWR0aDoxLjA7IiB4MT0iMzA3IiB4Mj0iMzE3IiB5MT0iMTYiIHkyPSI2Ii8+PGxpbmUgc3R5bGU9InN0cm9rZTojMkMzRTUwO3N0cm9rZS13aWR0aDoxLjA7IiB4MT0iNDgiIHgyPSIzMDciIHkxPSIxNiIgeTI9IjE2Ii8+PGxpbmUgc3R5bGU9InN0cm9rZTojMkMzRTUwO3N0cm9rZS13aWR0aDoxLjA7IiB4MT0iMzA3IiB4Mj0iMzA3IiB5MT0iMTYiIHkyPSIxNDMiLz48dGV4dCBmaWxsPSIjMDAwMDAwIiBmb250LWZhbWlseT0ic2Fucy1zZXJpZiIgZm9udC1zaXplPSIxNCIgZm9udC13ZWlnaHQ9ImJvbGQiIGxlbmd0aEFkanVzdD0ic3BhY2luZyIgdGV4dExlbmd0aD0iMTc1IiB4PSI5MSIgeT0iMzIuMjM0NCI+UGFzc2VuZ2VyJ3MgTW9iaWxlIERldmljZTwvdGV4dD48L2c+PCEtLWNsdXN0ZXIgQWlybGluZS0tPjxnIGlkPSJjbHVzdGVyX0FpcmxpbmUiPjxwb2x5Z29uIGZpbGw9IiNBRUQ2RjEiIHBvaW50cz0iMTYsMjIyLDI2LDIxMiw1MDgsMjEyLDUwOCw1MjMsNDk4LDUzMywxNiw1MzMsMTYsMjIyIiBzdHlsZT0ic3Ryb2tlOiMyQzNFNTA7c3Ryb2tlLXdpZHRoOjEuMDsiLz48bGluZSBzdHlsZT0ic3Ryb2tlOiMyQzNFNTA7c3Ryb2tlLXdpZHRoOjEuMDsiIHgxPSI0OTgiIHgyPSI1MDgiIHkxPSIyMjIiIHkyPSIyMTIiLz48bGluZSBzdHlsZT0ic3Ryb2tlOiMyQzNFNTA7c3Ryb2tlLXdpZHRoOjEuMDsiIHgxPSIxNiIgeDI9IjQ5OCIgeTE9IjIyMiIgeTI9IjIyMiIvPjxsaW5lIHN0eWxlPSJzdHJva2U6IzJDM0U1MDtzdHJva2Utd2lkdGg6MS4wOyIgeDE9IjQ5OCIgeDI9IjQ5OCIgeTE9IjIyMiIgeTI9IjUzMyIvPjx0ZXh0IGZpbGw9IiMwMDAwMDAiIGZvbnQtZmFtaWx5PSJzYW5zLXNlcmlmIiBmb250LXNpemU9IjE0IiBmb250LXdlaWdodD0iYm9sZCIgbGVuZ3RoQWRqdXN0PSJzcGFjaW5nIiB0ZXh0TGVuZ3RoPSIxNTQiIHg9IjE4MSIgeT0iMjM4LjIzNDQiPkFpcmxpbmUgSW5mcmFzdHJ1Y3R1cmU8L3RleHQ+PC9nPjwhLS1jbHVzdGVyIENoZWNraW4tLT48ZyBpZD0iY2x1c3Rlcl9DaGVja2luIj48cG9seWdvbiBmaWxsPSIjQUVENkYxIiBwb2ludHM9IjQ4LDI3Niw1OCwyNjYsNDc2LDI2Niw0NzYsMzkzLDQ2Niw0MDMsNDgsNDAzLDQ4LDI3NiIgc3R5bGU9InN0cm9rZTojMkMzRTUwO3N0cm9rZS13aWR0aDoxLjA7Ii8+PGxpbmUgc3R5bGU9InN0cm9rZTojMkMzRTUwO3N0cm9rZS13aWR0aDoxLjA7IiB4MT0iNDY2IiB4Mj0iNDc2IiB5MT0iMjc2IiB5Mj0iMjY2Ii8+PGxpbmUgc3R5bGU9InN0cm9rZTojMkMzRTUwO3N0cm9rZS13aWR0aDoxLjA7IiB4MT0iNDgiIHgyPSI0NjYiIHkxPSIyNzYiIHkyPSIyNzYiLz48bGluZSBzdHlsZT0ic3Ryb2tlOiMyQzNFNTA7c3Ryb2tlLXdpZHRoOjEuMDsiIHgxPSI0NjYiIHgyPSI0NjYiIHkxPSIyNzYiIHkyPSI0MDMiLz48dGV4dCBmaWxsPSIjMDAwMDAwIiBmb250LWZhbWlseT0ic2Fucy1zZXJpZiIgZm9udC1zaXplPSIxNCIgZm9udC13ZWlnaHQ9ImJvbGQiIGxlbmd0aEFkanVzdD0ic3BhY2luZyIgdGV4dExlbmd0aD0iMTA2IiB4PSIyMDUiIHk9IjI5Mi4yMzQ0Ij5DaGVjay1pbiBTeXN0ZW08L3RleHQ+PC9nPjwhLS1jbHVzdGVyIEdvdi0tPjxnIGlkPSJjbHVzdGVyX0dvdiI+PHBvbHlnb24gZmlsbD0iI0FFRDZGMSIgcG9pbnRzPSI1NDAsMzE0LjE0LDU1MCwzMDQuMTQsMTA5MCwzMDQuMTQsMTA5MCw1MzEsMTA4MCw1NDEsNTQwLDU0MSw1NDAsMzE0LjE0IiBzdHlsZT0ic3Ryb2tlOiMyQzNFNTA7c3Ryb2tlLXdpZHRoOjEuMDsiLz48bGluZSBzdHlsZT0ic3Ryb2tlOiMyQzNFNTA7c3Ryb2tlLXdpZHRoOjEuMDsiIHgxPSIxMDgwIiB4Mj0iMTA5MCIgeTE9IjMxNC4xNCIgeTI9IjMwNC4xNCIvPjxsaW5lIHN0eWxlPSJzdHJva2U6IzJDM0U1MDtzdHJva2Utd2lkdGg6MS4wOyIgeDE9IjU0MCIgeDI9IjEwODAiIHkxPSIzMTQuMTQiIHkyPSIzMTQuMTQiLz48bGluZSBzdHlsZT0ic3Ryb2tlOiMyQzNFNTA7c3Ryb2tlLXdpZHRoOjEuMDsiIHgxPSIxMDgwIiB4Mj0iMTA4MCIgeTE9IjMxNC4xNCIgeTI9IjU0MSIvPjx0ZXh0IGZpbGw9IiMwMDAwMDAiIGZvbnQtZmFtaWx5PSJzYW5zLXNlcmlmIiBmb250LXNpemU9IjE0IiBmb250LXdlaWdodD0iYm9sZCIgbGVuZ3RoQWRqdXN0PSJzcGFjaW5nIiB0ZXh0TGVuZ3RoPSIxNDEiIHg9Ijc0MC41IiB5PSIzMzAuMzc0NCI+R292ZXJubWVudCBBdXRob3JpdHk8L3RleHQ+PC9nPjwhLS1lbnRpdHkgQ2xvdWQgU2VydmljZS0tPjxnIGlkPSJlbGVtX0Nsb3VkIFNlcnZpY2UiPjxyZWN0IGZpbGw9IiNGRUZFRkUiIGhlaWdodD0iNDQuOTg0NCIgcng9IjIuNSIgcnk9IjIuNSIgc3R5bGU9InN0cm9rZTojMkMzRTUwO3N0cm9rZS13aWR0aDowLjU7IiB3aWR0aD0iMTMxIiB4PSI2NTcuNSIgeT0iNzQiLz48cmVjdCBmaWxsPSIjRkVGRUZFIiBoZWlnaHQ9IjEwIiBzdHlsZT0ic3Ryb2tlOiMyQzNFNTA7c3Ryb2tlLXdpZHRoOjAuNTsiIHdpZHRoPSIxNSIgeD0iNzY4LjUiIHk9Ijc5Ii8+PHJlY3QgZmlsbD0iI0ZFRkVGRSIgaGVpZ2h0PSIyIiBzdHlsZT0ic3Ryb2tlOiMyQzNFNTA7c3Ryb2tlLXdpZHRoOjAuNTsiIHdpZHRoPSI0IiB4PSI3NjYuNSIgeT0iODEiLz48cmVjdCBmaWxsPSIjRkVGRUZFIiBoZWlnaHQ9IjIiIHN0eWxlPSJzdHJva2U6IzJDM0U1MDtzdHJva2Utd2lkdGg6MC41OyIgd2lkdGg9IjQiIHg9Ijc2Ni41IiB5PSI4NSIvPjx0ZXh0IGZpbGw9IiMwMDAwMDAiIGZvbnQtZmFtaWx5PSJzYW5zLXNlcmlmIiBmb250LXNpemU9IjE0IiBsZW5ndGhBZGp1c3Q9InNwYWNpbmciIHRleHRMZW5ndGg9IjkxIiB4PSI2NzIuNSIgeT0iMTA3LjIzNDQiPkNsb3VkIFNlcnZpY2U8L3RleHQ+PC9nPjwhLS1lbnRpdHkgRGlnaXRhbCBJZGVudGl0eSBXYWxsZXQtLT48ZyBpZD0iZWxlbV9EaWdpdGFsIElkZW50aXR5IFdhbGxldCI+PHJlY3QgZmlsbD0iI0ZFRkVGRSIgaGVpZ2h0PSI0NC45ODQ0IiByeD0iMi41IiByeT0iMi41IiBzdHlsZT0ic3Ryb2tlOiMyQzNFNTA7c3Ryb2tlLXdpZHRoOjAuNTsiIHdpZHRoPSIyMDEiIHg9IjkxLjUiIHk9Ijc0Ii8+PHJlY3QgZmlsbD0iI0ZFRkVGRSIgaGVpZ2h0PSIxMCIgc3R5bGU9InN0cm9rZTojMkMzRTUwO3N0cm9rZS13aWR0aDowLjU7IiB3aWR0aD0iMTUiIHg9IjI3Mi41IiB5PSI3OSIvPjxyZWN0IGZpbGw9IiNGRUZFRkUiIGhlaWdodD0iMiIgc3R5bGU9InN0cm9rZTojMkMzRTUwO3N0cm9rZS13aWR0aDowLjU7IiB3aWR0aD0iNCIgeD0iMjcwLjUiIHk9IjgxIi8+PHJlY3QgZmlsbD0iI0ZFRkVGRSIgaGVpZ2h0PSIyIiBzdHlsZT0ic3Ryb2tlOiMyQzNFNTA7c3Ryb2tlLXdpZHRoOjAuNTsiIHdpZHRoPSI0IiB4PSIyNzAuNSIgeT0iODUiLz48dGV4dCBmaWxsPSIjMDAwMDAwIiBmb250LWZhbWlseT0ic2Fucy1zZXJpZiIgZm9udC1zaXplPSIxNCIgbGVuZ3RoQWRqdXN0PSJzcGFjaW5nIiB0ZXh0TGVuZ3RoPSIxNjEiIHg9IjEwNi41IiB5PSIxMDcuMjM0NCI+RGlnaXRhbCBJZGVudGl0eSBXYWxsZXQ8L3RleHQ+PC9nPjwhLS1lbnRpdHkgQm9hcmRpbmcgU3lzdGVtLS0+PGcgaWQ9ImVsZW1fQm9hcmRpbmcgU3lzdGVtIj48cmVjdCBmaWxsPSIjRkVGRUZFIiBoZWlnaHQ9IjQ0Ljk4NDQiIHJ4PSIyLjUiIHJ5PSIyLjUiIHN0eWxlPSJzdHJva2U6IzJDM0U1MDtzdHJva2Utd2lkdGg6MC41OyIgd2lkdGg9IjE0NiIgeD0iMzQ2IiB5PSI0NzIiLz48cmVjdCBmaWxsPSIjRkVGRUZFIiBoZWlnaHQ9IjEwIiBzdHlsZT0ic3Ryb2tlOiMyQzNFNTA7c3Ryb2tlLXdpZHRoOjAuNTsiIHdpZHRoPSIxNSIgeD0iNDcyIiB5PSI0NzciLz48cmVjdCBmaWxsPSIjRkVGRUZFIiBoZWlnaHQ9IjIiIHN0eWxlPSJzdHJva2U6IzJDM0U1MDtzdHJva2Utd2lkdGg6MC41OyIgd2lkdGg9IjQiIHg9IjQ3MCIgeT0iNDc5Ii8+PHJlY3QgZmlsbD0iI0ZFRkVGRSIgaGVpZ2h0PSIyIiBzdHlsZT0ic3Ryb2tlOiMyQzNFNTA7c3Ryb2tlLXdpZHRoOjAuNTsiIHdpZHRoPSI0IiB4PSI0NzAiIHk9IjQ4MyIvPjx0ZXh0IGZpbGw9IiMwMDAwMDAiIGZvbnQtZmFtaWx5PSJzYW5zLXNlcmlmIiBmb250LXNpemU9IjE0IiBsZW5ndGhBZGp1c3Q9InNwYWNpbmciIHRleHRMZW5ndGg9IjEwNiIgeD0iMzYxIiB5PSI1MDUuMjM0NCI+Qm9hcmRpbmcgU3lzdGVtPC90ZXh0PjwvZz48IS0tZW50aXR5IE9ubGluZSBDaGVjay1pbiBQb3J0YWwtLT48ZyBpZD0iZWxlbV9PbmxpbmUgQ2hlY2staW4gUG9ydGFsIj48cmVjdCBmaWxsPSIjRkVGRUZFIiBoZWlnaHQ9IjQ0Ljk4NDQiIHJ4PSIyLjUiIHJ5PSIyLjUiIHN0eWxlPSJzdHJva2U6IzJDM0U1MDtzdHJva2Utd2lkdGg6MC41OyIgd2lkdGg9IjE5NCIgeD0iMjU4IiB5PSIzMzQiLz48cmVjdCBmaWxsPSIjRkVGRUZFIiBoZWlnaHQ9IjEwIiBzdHlsZT0ic3Ryb2tlOiMyQzNFNTA7c3Ryb2tlLXdpZHRoOjAuNTsiIHdpZHRoPSIxNSIgeD0iNDMyIiB5PSIzMzkiLz48cmVjdCBmaWxsPSIjRkVGRUZFIiBoZWlnaHQ9IjIiIHN0eWxlPSJzdHJva2U6IzJDM0U1MDtzdHJva2Utd2lkdGg6MC41OyIgd2lkdGg9IjQiIHg9IjQzMCIgeT0iMzQxIi8+PHJlY3QgZmlsbD0iI0ZFRkVGRSIgaGVpZ2h0PSIyIiBzdHlsZT0ic3Ryb2tlOiMyQzNFNTA7c3Ryb2tlLXdpZHRoOjAuNTsiIHdpZHRoPSI0IiB4PSI0MzAiIHk9IjM0NSIvPjx0ZXh0IGZpbGw9IiMwMDAwMDAiIGZvbnQtZmFtaWx5PSJzYW5zLXNlcmlmIiBmb250LXNpemU9IjE0IiBsZW5ndGhBZGp1c3Q9InNwYWNpbmciIHRleHRMZW5ndGg9IjE1NCIgeD0iMjczIiB5PSIzNjcuMjM0NCI+T25saW5lIENoZWNrLWluIFBvcnRhbDwvdGV4dD48L2c+PCEtLWVudGl0eSBBaXJwb3J0IEtpb3NrLS0+PGcgaWQ9ImVsZW1fQWlycG9ydCBLaW9zayI+PHJlY3QgZmlsbD0iI0ZFRkVGRSIgaGVpZ2h0PSI0NC45ODQ0IiByeD0iMi41IiByeT0iMi41IiBzdHlsZT0ic3Ryb2tlOiMyQzNFNTA7c3Ryb2tlLXdpZHRoOjAuNTsiIHdpZHRoPSIxMzEiIHg9IjkxLjUiIHk9IjMzNCIvPjxyZWN0IGZpbGw9IiNGRUZFRkUiIGhlaWdodD0iMTAiIHN0eWxlPSJzdHJva2U6IzJDM0U1MDtzdHJva2Utd2lkdGg6MC41OyIgd2lkdGg9IjE1IiB4PSIyMDIuNSIgeT0iMzM5Ii8+PHJlY3QgZmlsbD0iI0ZFRkVGRSIgaGVpZ2h0PSIyIiBzdHlsZT0ic3Ryb2tlOiMyQzNFNTA7c3Ryb2tlLXdpZHRoOjAuNTsiIHdpZHRoPSI0IiB4PSIyMDAuNSIgeT0iMzQxIi8+PHJlY3QgZmlsbD0iI0ZFRkVGRSIgaGVpZ2h0PSIyIiBzdHlsZT0ic3Ryb2tlOiMyQzNFNTA7c3Ryb2tlLXdpZHRoOjAuNTsiIHdpZHRoPSI0IiB4PSIyMDAuNSIgeT0iMzQ1Ii8+PHRleHQgZmlsbD0iIzAwMDAwMCIgZm9udC1mYW1pbHk9InNhbnMtc2VyaWYiIGZvbnQtc2l6ZT0iMTQiIGxlbmd0aEFkanVzdD0ic3BhY2luZyIgdGV4dExlbmd0aD0iOTEiIHg9IjEwNi41IiB5PSIzNjcuMjM0NCI+QWlycG9ydCBLaW9zazwvdGV4dD48L2c+PCEtLWVudGl0eSBEb2N1bWVudCBWZXJpZmljYXRpb24gU2VydmljZS0tPjxnIGlkPSJlbGVtX0RvY3VtZW50IFZlcmlmaWNhdGlvbiBTZXJ2aWNlIj48cmVjdCBmaWxsPSIjRkVGRUZFIiBoZWlnaHQ9IjQ0Ljk4NDQiIHJ4PSIyLjUiIHJ5PSIyLjUiIHN0eWxlPSJzdHJva2U6IzJDM0U1MDtzdHJva2Utd2lkdGg6MC41OyIgd2lkdGg9IjI0NCIgeD0iODIyIiB5PSI0NzIiLz48cmVjdCBmaWxsPSIjRkVGRUZFIiBoZWlnaHQ9IjEwIiBzdHlsZT0ic3Ryb2tlOiMyQzNFNTA7c3Ryb2tlLXdpZHRoOjAuNTsiIHdpZHRoPSIxNSIgeD0iMTA0NiIgeT0iNDc3Ii8+PHJlY3QgZmlsbD0iI0ZFRkVGRSIgaGVpZ2h0PSIyIiBzdHlsZT0ic3Ryb2tlOiMyQzNFNTA7c3Ryb2tlLXdpZHRoOjAuNTsiIHdpZHRoPSI0IiB4PSIxMDQ0IiB5PSI0NzkiLz48cmVjdCBmaWxsPSIjRkVGRUZFIiBoZWlnaHQ9IjIiIHN0eWxlPSJzdHJva2U6IzJDM0U1MDtzdHJva2Utd2lkdGg6MC41OyIgd2lkdGg9IjQiIHg9IjEwNDQiIHk9IjQ4MyIvPjx0ZXh0IGZpbGw9IiMwMDAwMDAiIGZvbnQtZmFtaWx5PSJzYW5zLXNlcmlmIiBmb250LXNpemU9IjE0IiBsZW5ndGhBZGp1c3Q9InNwYWNpbmciIHRleHRMZW5ndGg9IjIwNCIgeD0iODM3IiB5PSI1MDUuMjM0NCI+RG9jdW1lbnQgVmVyaWZpY2F0aW9uIFNlcnZpY2U8L3RleHQ+PC9nPjwhLS1lbnRpdHkgTmF0aW9uYWwgRG9jdW1lbnQgRGF0YWJhc2UtLT48ZyBpZD0iZWxlbV9OYXRpb25hbCBEb2N1bWVudCBEYXRhYmFzZSI+PHJlY3QgZmlsbD0iI0ZFRkVGRSIgaGVpZ2h0PSI0NC45ODQ0IiByeD0iMi41IiByeT0iMi41IiBzdHlsZT0ic3Ryb2tlOiMyQzNFNTA7c3Ryb2tlLXdpZHRoOjAuNTsiIHdpZHRoPSIyMjMiIHg9IjU2My41IiB5PSI0NzIiLz48cmVjdCBmaWxsPSIjRkVGRUZFIiBoZWlnaHQ9IjEwIiBzdHlsZT0ic3Ryb2tlOiMyQzNFNTA7c3Ryb2tlLXdpZHRoOjAuNTsiIHdpZHRoPSIxNSIgeD0iNzY2LjUiIHk9IjQ3NyIvPjxyZWN0IGZpbGw9IiNGRUZFRkUiIGhlaWdodD0iMiIgc3R5bGU9InN0cm9rZTojMkMzRTUwO3N0cm9rZS13aWR0aDowLjU7IiB3aWR0aD0iNCIgeD0iNzY0LjUiIHk9IjQ3OSIvPjxyZWN0IGZpbGw9IiNGRUZFRkUiIGhlaWdodD0iMiIgc3R5bGU9InN0cm9rZTojMkMzRTUwO3N0cm9rZS13aWR0aDowLjU7IiB3aWR0aD0iNCIgeD0iNzY0LjUiIHk9IjQ4MyIvPjx0ZXh0IGZpbGw9IiMwMDAwMDAiIGZvbnQtZmFtaWx5PSJzYW5zLXNlcmlmIiBmb250LXNpemU9IjE0IiBsZW5ndGhBZGp1c3Q9InNwYWNpbmciIHRleHRMZW5ndGg9IjE4MyIgeD0iNTc4LjUiIHk9IjUwNS4yMzQ0Ij5OYXRpb25hbCBEb2N1bWVudCBEYXRhYmFzZTwvdGV4dD48L2c+PCEtLWVudGl0eSBQYXNzZW5nZXIncyBNb2JpbGUgRGV2aWNlLS0+PGcgaWQ9ImVsZW1fUGFzc2VuZ2VyJ3MgTW9iaWxlIERldmljZSI+PHJlY3QgZmlsbD0iI0ZFRkVGRSIgaGVpZ2h0PSI0NC45ODQ0IiByeD0iMi41IiByeT0iMi41IiBzdHlsZT0ic3Ryb2tlOiMyQzNFNTA7c3Ryb2tlLXdpZHRoOjAuNTsiIHdpZHRoPSIyMTUiIHg9IjEyNTMuNSIgeT0iNDcyIi8+PHJlY3QgZmlsbD0iI0ZFRkVGRSIgaGVpZ2h0PSIxMCIgc3R5bGU9InN0cm9rZTojMkMzRTUwO3N0cm9rZS13aWR0aDowLjU7IiB3aWR0aD0iMTUiIHg9IjE0NDguNSIgeT0iNDc3Ii8+PHJlY3QgZmlsbD0iI0ZFRkVGRSIgaGVpZ2h0PSIyIiBzdHlsZT0ic3Ryb2tlOiMyQzNFNTA7c3Ryb2tlLXdpZHRoOjAuNTsiIHdpZHRoPSI0IiB4PSIxNDQ2LjUiIHk9IjQ3OSIvPjxyZWN0IGZpbGw9IiNGRUZFRkUiIGhlaWdodD0iMiIgc3R5bGU9InN0cm9rZTojMkMzRTUwO3N0cm9rZS13aWR0aDowLjU7IiB3aWR0aD0iNCIgeD0iMTQ0Ni41IiB5PSI0ODMiLz48dGV4dCBmaWxsPSIjMDAwMDAwIiBmb250LWZhbWlseT0ic2Fucy1zZXJpZiIgZm9udC1zaXplPSIxNCIgbGVuZ3RoQWRqdXN0PSJzcGFjaW5nIiB0ZXh0TGVuZ3RoPSIxNzUiIHg9IjEyNjguNSIgeT0iNTA1LjIzNDQiPlBhc3NlbmdlcidzIE1vYmlsZSBEZXZpY2U8L3RleHQ+PC9nPjwhLS1saW5rIE1vYmlsZSB0byBDaGVja2luLS0+PGcgaWQ9ImxpbmtfTW9iaWxlX0NoZWNraW4iPjxwYXRoIGQ9Ik01NiwxNDMuNTU1NSBDNTYsMTQ1LjExNzMgNTYsMTQ2LjcwNzMgNTYsMTQ4LjMyMzUgQzU2LDE1MS41NTYxIDU2LDE1NC44OTM4IDU2LDE1OC4zMjE2IEM1NiwxNjUuMTc3MiA1NiwxNzIuMzkzNCA1NiwxNzkuODQ5OSBDNTYsMTk0Ljc2MjkgNTYsMjEwLjYzNzIgNTYsMjI2LjUxMTMgQzU2LDIzNC40NDgzIDU2LDI0Mi4zODUzIDU2LDI1MC4yMDIgQzU2LDI1NC4xMTAzIDU2LDI1Ny45ODg2IDU2LDI2MS44MjE4IEM1NiwyNjIuNzgwMSA1NiwyNjMuNzM1NiA1NiwyNjQuNjg4MSBDNTYsMjY0LjkyNjIgNTYsMjU5LjE2NDEgNTYsMjU5LjQwMTggIiBmaWxsPSJub25lIiBpZD0iTW9iaWxlLXRvLUNoZWNraW4iIHN0eWxlPSJzdHJva2U6IzE4MTgxODtzdHJva2Utd2lkdGg6MS4wOyIvPjxwb2x5Z29uIGZpbGw9IiMxODE4MTgiIHBvaW50cz0iNTYsMjY1LjQwMTgsNjAsMjU2LjQwMTgsNTYsMjYwLjQwMTgsNTIsMjU2LjQwMTgsNTYsMjY1LjQwMTgiIHN0eWxlPSJzdHJva2U6IzE4MTgxODtzdHJva2Utd2lkdGg6MS4wOyIvPjx0ZXh0IGZpbGw9IiMwMDAwMDAiIGZvbnQtZmFtaWx5PSJzYW5zLXNlcmlmIiBmb250LXNpemU9IjEzIiBsZW5ndGhBZGp1c3Q9InNwYWNpbmciIHRleHRMZW5ndGg9IjcwIiB4PSI2MyIgeT0iMTgwLjI4OTEiPlNoYXJlcyBWQ3M8L3RleHQ+PHRleHQgZmlsbD0iIzAwMDAwMCIgZm9udC1mYW1pbHk9InNhbnMtc2VyaWYiIGZvbnQtc2l6ZT0iMTMiIGxlbmd0aEFkanVzdD0ic3BhY2luZyIgdGV4dExlbmd0aD0iODIiIHg9IjU3IiB5PSIxOTQuMjAzMSI+Zm9yIENoZWNrLWluPC90ZXh0PjwvZz48IS0tbGluayBDaGVja2luIHRvIEdvdi0tPjxnIGlkPSJsaW5rX0NoZWNraW5fR292Ij48cGF0aCBkPSJNNDcuOTg3NywzMDMuNjg4MyBDNDcuOTEzMiwzMDEuOTM3NyA0Ny44NTg5LDMwMC4xNjgyIDQ3LjgyNzUsMjk4LjM4MzggQzQ3LjMyNSwyNjkuODMyNSA1Mi42ODUsMjM3LjQ2NSA3NSwyMTggQzE0MC44MiwxNjAuNiAzOTIuMzYsMTc0LjM0IDQ2OCwyMTggQzQ5Ny4zNCwyMzQuOTM1IDUxNi44ODUsMjY3LjE4NSA1MjkuMzA3NSwyOTYuMzA2MyBDNTMyLjQxMzEsMzAzLjU4NjYgNTM1LjA3MzYsMzEwLjY3MTMgNTM3LjMzMDcsMzE3LjI3MjQgQzUzNy44OTQ5LDMxOC45MjI2IDUzOC40MzQsMzIwLjU0MjYgNTM4Ljk0ODUsMzIyLjEyNzkgQzUzOS4yMDU3LDMyMi45MjA2IDUzOS40NTY4LDMyMy43MDQ1IDUzOS43MDE5LDMyNC40NzkzIEM1MzkuNzYzMSwzMjQuNjcyOSA1MzguMDI1LDMxOS4xNDIxIDUzOC4wODU1LDMxOS4zMzQ2ICIgZmlsbD0ibm9uZSIgaWQ9IkNoZWNraW4tdG8tR292IiBzdHlsZT0ic3Ryb2tlOiMxODE4MTg7c3Ryb2tlLXdpZHRoOjEuMDsiLz48cG9seWdvbiBmaWxsPSIjMTgxODE4IiBwb2ludHM9IjUzOS44ODQ1LDMyNS4wNTg1LDU0MS4wMDIsMzE1LjI3MzMsNTM4LjM4NTQsMzIwLjI4ODYsNTMzLjM3MDEsMzE3LjY3Miw1MzkuODg0NSwzMjUuMDU4NSIgc3R5bGU9InN0cm9rZTojMTgxODE4O3N0cm9rZS13aWR0aDoxLjA7Ii8+PHRleHQgZmlsbD0iIzAwMDAwMCIgZm9udC1mYW1pbHk9InNhbnMtc2VyaWYiIGZvbnQtc2l6ZT0iMTMiIGxlbmd0aEFkanVzdD0ic3BhY2luZyIgdGV4dExlbmd0aD0iODEiIHg9IjMwNi41IiB5PSIxODcuMjg5MSI+VmVyaWZpZXMgVkNzPC90ZXh0PjwvZz48IS0tbGluayBHb3YgdG8gTmF0aW9uYWwgRG9jdW1lbnQgRGF0YWJhc2UtLT48ZyBpZD0ibGlua19Hb3ZfTmF0aW9uYWwgRG9jdW1lbnQgRGF0YWJhc2UiPjxwYXRoIGQ9Ik01NDguMDksMzU3LjYgQzU1MC45NSwzNjAuNjYgNjE1LjczNDcsNDMwLjAzNSA2NTAuNzk0Nyw0NjcuNTc1ICIgZmlsbD0ibm9uZSIgaWQ9Ikdvdi10by1OYXRpb25hbCBEb2N1bWVudCBEYXRhYmFzZSIgc3R5bGU9InN0cm9rZTojMTgxODE4O3N0cm9rZS13aWR0aDoxLjA7Ii8+PHBvbHlnb24gZmlsbD0iIzE4MTgxOCIgcG9pbnRzPSI2NTQuODksNDcxLjk2LDY1MS42NzA0LDQ2Mi42NTIzLDY1MS40NzcyLDQ2OC4zMDU4LDY0NS44MjM3LDQ2OC4xMTI3LDY1NC44OSw0NzEuOTYiIHN0eWxlPSJzdHJva2U6IzE4MTgxODtzdHJva2Utd2lkdGg6MS4wOyIvPjx0ZXh0IGZpbGw9IiMwMDAwMDAiIGZvbnQtZmFtaWx5PSJzYW5zLXNlcmlmIiBmb250LXNpemU9IjEzIiBsZW5ndGhBZGp1c3Q9InNwYWNpbmciIHRleHRMZW5ndGg9IjE2MiIgeD0iNjI3IiB5PSI0NDAuMjg5MSI+Q2hlY2tzIERvY3VtZW50IFZhbGlkaXR5PC90ZXh0PjwvZz48IS0tbGluayBDaGVja2luIHRvIEJvYXJkaW5nIFN5c3RlbS0tPjxnIGlkPSJsaW5rX0NoZWNraW5fQm9hcmRpbmcgU3lzdGVtIj48cGF0aCBkPSJNNjMuOTI3OCw0MDMuMDU5OCBDNjQuMTA3NCw0MDMuNDU4NyA2NC4yOTEsNDAzLjg1NTcgNjQuNDc4Nyw0MDQuMjUwNyBDNjQuODU0LDQwNS4wNDA2IDY1LjI0NTcsNDA1LjgyMjIgNjUuNjU0NCw0MDYuNTkzOCBDNjYuNDcxNyw0MDguMTM2OCA2Ny4zNTcyLDQwOS42Mzk0IDY4LjMxNjMsNDExLjA4NzEgQzcwLjIzNDUsNDEzLjk4MjcgNzIuNDQ3NSw0MTYuNjU4OCA3NSw0MTkgQzExMy45LDQ1NC42OCAyNTAuOTc4OSw0NzUuNDQ3NSAzMzkuODk4OSw0ODUuNjI3NSAiIGZpbGw9Im5vbmUiIGlkPSJDaGVja2luLXRvLUJvYXJkaW5nIFN5c3RlbSIgc3R5bGU9InN0cm9rZTojMTgxODE4O3N0cm9rZS13aWR0aDoxLjA7Ii8+PHBvbHlnb24gZmlsbD0iIzE4MTgxOCIgcG9pbnRzPSIzNDUuODYsNDg2LjMxLDMzNy4zNzM0LDQ4MS4zMTIzLDM0MC44OTI0LDQ4NS43NDEzLDMzNi40NjM0LDQ4OS4yNjA0LDM0NS44Niw0ODYuMzEiIHN0eWxlPSJzdHJva2U6IzE4MTgxODtzdHJva2Utd2lkdGg6MS4wOyIvPjx0ZXh0IGZpbGw9IiMwMDAwMDAiIGZvbnQtZmFtaWx5PSJzYW5zLXNlcmlmIiBmb250LXNpemU9IjEzIiBsZW5ndGhBZGp1c3Q9InNwYWNpbmciIHRleHRMZW5ndGg9IjExNSIgeD0iMTEyIiB5PSI0NDAuMjg5MSI+Q29uZmlybXMgQ2hlY2staW48L3RleHQ+PC9nPjwhLS1saW5rIEJvYXJkaW5nIFN5c3RlbSB0byBQYXNzZW5nZXIncyBNb2JpbGUgRGV2aWNlLS0+PGcgaWQ9ImxpbmtfQm9hcmRpbmcgU3lzdGVtX1Bhc3NlbmdlcidzIE1vYmlsZSBEZXZpY2UiPjxwYXRoIGQ9Ik00ODMuMjIsNDcxLjkgQzUwMy42Nyw0NjUuNjQgNTI2LjU2LDQ1OS41OCA1NDgsNDU2IEM3OTYuMzMsNDE0LjU3IDg2Mi4yOSw0MzguMTEgMTExNCw0MzMgQzExNDUuMSw0MzIuMzcgMTIyMy45NCw0MjQuOTggMTI1NCw0MzMgQzEyODIuMzYsNDQwLjU3IDEzMDYuMDgxNCw0NTQuMjI4MSAxMzI2LjU5MTQsNDY4LjQ2ODEgIiBmaWxsPSJub25lIiBpZD0iQm9hcmRpbmcgU3lzdGVtLXRvLVBhc3NlbmdlcidzIE1vYmlsZSBEZXZpY2UiIHN0eWxlPSJzdHJva2U6IzE4MTgxODtzdHJva2Utd2lkdGg6MS4wO3N0cm9rZS1kYXNoYXJyYXk6Ny4wLDcuMDsiLz48cG9seWdvbiBmaWxsPSIjMTgxODE4IiBwb2ludHM9IjEzMzEuNTIsNDcxLjg5LDEzMjYuNDA4NCw0NjMuNDcxNSwxMzI3LjQxMjksNDY5LjAzODQsMTMyMS44NDU5LDQ3MC4wNDI5LDEzMzEuNTIsNDcxLjg5IiBzdHlsZT0ic3Ryb2tlOiMxODE4MTg7c3Ryb2tlLXdpZHRoOjEuMDsiLz48dGV4dCBmaWxsPSIjMDAwMDAwIiBmb250LWZhbWlseT0ic2Fucy1zZXJpZiIgZm9udC1zaXplPSIxMyIgbGVuZ3RoQWRqdXN0PSJzcGFjaW5nIiB0ZXh0TGVuZ3RoPSIxMzgiIHg9IjExMTUiIHk9IjQ0MC4yODkxIj5Jc3N1ZXMgQm9hcmRpbmcgUGFzczwvdGV4dD48L2c+PCEtLVNSQz1bWkw5SFF6aW00N3h0aHIyelhwc3Z0SGdzWG44Q2dVRUNDQk9MMGtiM3JXVjVFWmwyaml3U3Y5TEktanlkb05CU2ZSSVQzMFJUVlZWVFR6X2ZKQWdZd0dNbWtVYXhCY1hzS00zUmVhZ1ppblVQNGZMOS0zcmVSRTZZblJyaXU1c08xbGUzejJ3aVFCME5RSEpmTWdnRTRzX1BPeUppc1ZFWWhXWHg5SjlpYURZN0Y1elRoY08tZnozSTNKMXRoYS1YWXRwdlRWTHZvWUM5ZTkyeHA2UnZicXktei1KX1RrZUU1SVpwNWtDZ1R6el9DM3Y1YVAtOG5NamJXMUlPYzc3RG5hbGVpU2l5UGNDamFXTlNpVmN5dkNkV0hFZWVfODNuM1RTUUwwTnFLUkNWdGRJczE1VldBS0NhNDJ2YjlHcmxzNWhPSVFIdk9CVXlRUzA0d2gyb1B6bUJJT3JLTzhNTG5CTVhsWjB6M1NIWndkN29FaXVFS0RJOUw2cHBlMHNxN2tUWkRaSlBqbGtiVkVLSFZPRGFIR0tIdUs2YTR6bnN3WW8yVlBVZXd1MEllNmszTk8wREF6ZlQ4b1NYTEhOUWRuOFVmX2c2RGcxUWp5bjVSbXY4cldjbHJJUUVKYzdIVXlHTUk5UW91NFFZRWJkNUZyOXRGcHQ0Y2RpaU5OQjN6cm9GUzE2a1d2SW1jNEpXbEtoSXFRT2g1Y3lFZDQycFJRUF9nekEtZEQ2Y0UxZ2pKNFhNMXNFQmg1dlJDMldTSWtCOHBKMklsZ05mQWduQkp4YWpSd0htTmFISmd2N2ZyNWpOWmdnS3JFZmQyYi1rdURuaEZSU0NoeHZKbnhOTWtoU0o3Q2lURUZ1Ql0tLT48L2c+PC9zdmc+;" vertex="1" parent="1">
            <mxGeometry x="-860" y="150" width="1474" height="558" as="geometry" />
          </mxCell>
        </UserObject>
      </root>
    </mxGraphModel>
  </diagram>
</mxfile>
